<?xml version="1.0" encoding="utf-8"?>
<svg viewBox="3.51 6.322 490.751 39.196" xmlns="http://www.w3.org/2000/svg">
  <path d="M 14.106 45.518 C 11.894 45.518 9.895 44.954 8.109 43.827 C 6.311 42.699 4.907 41.195 3.898 39.316 C 3.639 38.875 3.51 38.454 3.51 38.052 C 3.51 37.443 3.749 36.944 4.228 36.555 C 4.694 36.179 5.159 35.991 5.625 35.991 C 6.026 35.991 6.401 36.101 6.751 36.322 C 7.087 36.542 7.385 36.814 7.644 37.138 C 8.368 38.37 9.274 39.348 10.361 40.074 C 11.448 40.8 12.696 41.163 14.106 41.163 C 15.594 41.163 16.908 40.839 18.046 40.191 C 19.185 39.53 20.091 38.629 20.763 37.488 C 21.436 36.348 21.773 35.051 21.773 33.6 L 21.773 9.044 C 21.773 8.422 21.999 7.903 22.452 7.489 C 22.905 7.074 23.455 6.866 24.102 6.866 C 24.761 6.866 25.298 7.074 25.712 7.489 C 26.127 7.903 26.334 8.422 26.334 9.044 L 26.334 33.6 C 26.334 35.816 25.803 37.832 24.742 39.646 C 23.668 41.461 22.219 42.893 20.395 43.943 C 18.557 44.993 16.461 45.518 14.106 45.518 Z M 40.346 42.738 C 40.346 43.36 40.12 43.885 39.667 44.313 C 39.214 44.753 38.684 44.974 38.075 44.974 C 37.377 44.974 36.833 44.753 36.445 44.313 C 36.044 43.885 35.843 43.36 35.843 42.738 L 35.843 9.102 C 35.843 8.441 36.057 7.903 36.484 7.489 C 36.924 7.074 37.467 6.866 38.114 6.866 C 38.735 6.866 39.266 7.074 39.706 7.489 C 40.133 7.903 40.346 8.441 40.346 9.102 L 40.346 42.738 Z M 61.695 44.974 C 61.048 44.974 60.505 44.753 60.065 44.313 C 59.638 43.885 59.424 43.36 59.424 42.738 L 59.424 9.102 L 64.043 9.102 L 64.043 42.738 C 64.043 43.36 63.823 43.885 63.383 44.313 C 62.944 44.753 62.381 44.974 61.695 44.974 Z M 49.099 11.008 C 48.478 11.008 47.961 10.813 47.547 10.424 C 47.132 10.048 46.925 9.549 46.925 8.927 C 46.925 8.318 47.132 7.819 47.547 7.43 C 47.961 7.054 48.478 6.866 49.099 6.866 L 74.368 6.866 C 74.977 6.866 75.501 7.054 75.94 7.43 C 76.367 7.819 76.581 8.318 76.581 8.927 C 76.581 9.588 76.367 10.1 75.94 10.463 C 75.501 10.826 74.977 11.008 74.368 11.008 L 49.099 11.008 Z M 94.203 45.518 C 91.525 45.518 89.17 45.116 87.139 44.313 C 85.108 43.522 83.154 42.252 81.278 40.502 C 81.019 40.256 80.812 39.977 80.657 39.666 C 80.488 39.355 80.404 39.018 80.404 38.655 C 80.404 38.072 80.611 37.553 81.025 37.099 C 81.439 36.646 81.957 36.419 82.578 36.419 C 83.083 36.419 83.535 36.62 83.937 37.022 C 85.347 38.409 86.88 39.465 88.536 40.191 C 90.18 40.917 92.036 41.28 94.106 41.28 C 95.698 41.28 97.134 41.02 98.415 40.502 C 99.709 39.996 100.731 39.29 101.481 38.383 C 102.245 37.475 102.627 36.425 102.627 35.233 C 102.588 33.781 102.161 32.582 101.346 31.636 C 100.53 30.69 99.411 29.899 97.988 29.264 C 96.552 28.629 94.896 28.098 93.02 27.67 C 91.35 27.268 89.817 26.775 88.42 26.192 C 87.022 25.609 85.819 24.89 84.81 24.034 C 83.788 23.192 82.999 22.161 82.442 20.943 C 81.886 19.724 81.608 18.299 81.608 16.665 C 81.608 14.592 82.151 12.777 83.238 11.221 C 84.325 9.666 85.826 8.461 87.741 7.605 C 89.655 6.75 91.868 6.322 94.378 6.322 C 96.578 6.322 98.667 6.685 100.647 7.411 C 102.627 8.137 104.212 9.135 105.402 10.405 C 106.126 11.092 106.489 11.766 106.489 12.427 C 106.489 12.971 106.262 13.47 105.809 13.924 C 105.357 14.378 104.839 14.604 104.257 14.604 C 103.856 14.604 103.493 14.455 103.17 14.157 C 102.562 13.47 101.786 12.855 100.841 12.31 C 99.896 11.766 98.861 11.332 97.736 11.008 C 96.61 10.684 95.491 10.522 94.378 10.522 C 92.709 10.522 91.24 10.761 89.972 11.241 C 88.705 11.733 87.715 12.427 87.003 13.321 C 86.304 14.203 85.955 15.266 85.955 16.51 C 85.955 17.884 86.35 19.018 87.139 19.912 C 87.941 20.794 89.009 21.52 90.341 22.09 C 91.687 22.647 93.175 23.146 94.805 23.587 C 96.578 24.015 98.214 24.514 99.715 25.084 C 101.229 25.641 102.529 26.335 103.616 27.164 C 104.703 28.007 105.544 29.07 106.139 30.353 C 106.735 31.649 107.032 33.237 107.032 35.116 C 107.032 37.112 106.469 38.895 105.344 40.463 C 104.218 42.018 102.691 43.243 100.763 44.138 C 98.823 45.019 96.636 45.479 94.203 45.518 Z M 131.486 6.808 C 131.81 6.808 132.166 6.899 132.554 7.08 C 132.929 7.262 133.227 7.502 133.447 7.8 L 147.847 29.614 L 145.945 29.575 L 160.501 7.8 C 160.98 7.1 161.595 6.769 162.345 6.808 C 162.927 6.847 163.438 7.067 163.878 7.469 C 164.305 7.871 164.519 8.396 164.519 9.044 L 164.519 42.738 C 164.519 43.36 164.305 43.885 163.878 44.313 C 163.438 44.753 162.895 44.974 162.248 44.974 C 161.588 44.974 161.045 44.753 160.618 44.313 C 160.178 43.885 159.958 43.36 159.958 42.738 L 159.958 13.185 L 161.316 13.457 L 148.488 32.997 C 148.281 33.256 148.022 33.477 147.711 33.658 C 147.401 33.84 147.084 33.93 146.76 33.93 C 146.437 33.93 146.107 33.84 145.771 33.658 C 145.447 33.477 145.175 33.256 144.955 32.997 L 132.301 13.457 L 133.447 12.038 L 133.447 42.738 C 133.447 43.36 133.246 43.885 132.845 44.313 C 132.444 44.753 131.939 44.974 131.331 44.974 C 130.71 44.974 130.212 44.753 129.837 44.313 C 129.448 43.885 129.254 43.36 129.254 42.738 L 129.254 9.044 C 129.254 8.461 129.461 7.942 129.875 7.489 C 130.302 7.035 130.839 6.808 131.486 6.808 Z M 187.168 12.524 L 174.397 43.671 C 174.255 44.099 174.003 44.442 173.641 44.701 C 173.278 44.961 172.897 45.09 172.495 45.09 C 171.81 45.09 171.305 44.909 170.982 44.546 C 170.658 44.183 170.496 43.742 170.496 43.224 C 170.458 42.978 170.49 42.705 170.593 42.407 L 184.684 8.111 C 184.865 7.605 185.143 7.236 185.518 7.002 C 185.893 6.769 186.32 6.672 186.799 6.711 C 187.265 6.711 187.692 6.834 188.08 7.08 C 188.455 7.339 188.714 7.683 188.856 8.111 L 202.888 42.096 C 202.992 42.381 203.044 42.666 203.044 42.952 C 203.044 43.613 202.824 44.131 202.384 44.507 C 201.957 44.896 201.472 45.09 200.928 45.09 C 200.488 45.09 200.087 44.961 199.725 44.701 C 199.363 44.442 199.091 44.079 198.91 43.613 L 185.984 12.466 L 187.168 12.524 Z M 177.115 34.786 L 178.978 30.547 L 195.106 30.547 L 195.921 34.786 L 177.115 34.786 Z M 237.182 6.866 C 237.804 6.866 238.295 7.054 238.657 7.43 C 239.02 7.819 239.201 8.305 239.201 8.888 L 239.201 42.679 C 239.201 43.379 238.981 43.937 238.541 44.351 C 238.101 44.766 237.577 44.974 236.969 44.974 C 236.646 44.974 236.316 44.909 235.979 44.779 C 235.656 44.65 235.403 44.481 235.222 44.274 L 211.971 13.457 L 213.058 12.796 L 213.058 42.952 C 213.058 43.535 212.864 44.021 212.476 44.41 C 212.101 44.786 211.603 44.974 210.982 44.974 C 210.412 44.974 209.947 44.786 209.584 44.41 C 209.222 44.021 209.041 43.535 209.041 42.952 L 209.041 9.044 C 209.041 8.396 209.248 7.871 209.662 7.469 C 210.076 7.067 210.574 6.866 211.156 6.866 C 211.48 6.866 211.816 6.931 212.166 7.061 C 212.502 7.19 212.761 7.378 212.942 7.625 L 235.882 38.013 L 235.164 38.869 L 235.164 8.888 C 235.164 8.305 235.358 7.819 235.746 7.43 C 236.122 7.054 236.6 6.866 237.182 6.866 Z M 261.85 12.524 L 249.08 43.671 C 248.924 44.099 248.666 44.442 248.303 44.701 C 247.941 44.961 247.566 45.09 247.178 45.09 C 246.479 45.09 245.968 44.909 245.644 44.546 C 245.321 44.183 245.159 43.742 245.159 43.224 C 245.12 42.978 245.159 42.705 245.276 42.407 L 259.346 8.111 C 259.528 7.605 259.806 7.236 260.181 7.002 C 260.569 6.769 260.996 6.672 261.462 6.711 C 261.928 6.711 262.355 6.834 262.743 7.08 C 263.118 7.339 263.377 7.683 263.519 8.111 L 277.551 42.096 C 277.655 42.381 277.706 42.666 277.706 42.952 C 277.706 43.613 277.493 44.131 277.066 44.507 C 276.626 44.896 276.134 45.09 275.591 45.09 C 275.151 45.09 274.75 44.961 274.388 44.701 C 274.025 44.442 273.754 44.079 273.573 43.613 L 260.647 12.466 L 261.85 12.524 Z M 251.797 34.786 L 253.64 30.547 L 269.769 30.547 L 270.584 34.786 L 251.797 34.786 Z M 300.763 45.518 C 297.968 45.518 295.387 45.019 293.019 44.021 C 290.639 43.023 288.556 41.636 286.77 39.86 C 284.972 38.084 283.574 36.004 282.578 33.619 C 281.582 31.247 281.083 28.681 281.083 25.92 C 281.083 23.12 281.582 20.534 282.578 18.162 C 283.574 15.79 284.972 13.71 286.77 11.921 C 288.556 10.146 290.639 8.772 293.019 7.8 C 295.387 6.815 297.968 6.322 300.763 6.322 C 302.601 6.322 304.38 6.529 306.1 6.944 C 307.821 7.359 309.393 8.007 310.817 8.888 C 311.179 9.07 311.438 9.323 311.593 9.647 C 311.761 9.971 311.845 10.314 311.845 10.677 C 311.845 11.299 311.638 11.824 311.224 12.252 C 310.797 12.693 310.312 12.913 309.769 12.913 C 309.562 12.913 309.355 12.874 309.147 12.796 C 308.953 12.732 308.746 12.66 308.526 12.582 C 307.401 11.999 306.185 11.539 304.878 11.202 C 303.584 10.852 302.212 10.677 300.763 10.677 C 297.891 10.677 295.322 11.351 293.058 12.699 C 290.794 14.034 289.015 15.849 287.721 18.143 C 286.414 20.424 285.761 23.017 285.761 25.92 C 285.761 28.785 286.414 31.37 287.721 33.678 C 289.015 35.985 290.794 37.806 293.058 39.141 C 295.322 40.489 297.891 41.163 300.763 41.163 C 302.212 41.163 303.707 40.962 305.246 40.56 C 306.786 40.158 308.099 39.653 309.186 39.044 L 308.798 40.346 L 308.798 28.856 L 309.672 29.614 L 301.345 29.614 C 300.737 29.614 300.226 29.407 299.812 28.992 C 299.385 28.577 299.172 28.059 299.172 27.437 C 299.172 26.827 299.385 26.315 299.812 25.901 C 300.226 25.473 300.737 25.259 301.345 25.259 L 311.244 25.259 C 311.89 25.259 312.415 25.479 312.816 25.92 C 313.217 26.361 313.417 26.886 313.417 27.495 L 313.417 40.074 C 313.417 40.515 313.32 40.897 313.126 41.221 C 312.919 41.545 312.654 41.817 312.33 42.038 C 310.7 43.088 308.895 43.93 306.916 44.565 C 304.949 45.2 302.898 45.518 300.763 45.518 Z M 323.354 6.866 L 342.704 6.866 C 343.325 6.866 343.849 7.067 344.276 7.469 C 344.716 7.871 344.936 8.376 344.936 8.986 C 344.936 9.608 344.716 10.107 344.276 10.483 C 343.849 10.872 343.325 11.066 342.704 11.066 L 325.217 11.066 L 325.703 10.133 L 325.703 23.898 L 325.159 23.315 L 340.259 23.315 C 340.88 23.315 341.404 23.509 341.831 23.898 C 342.271 24.3 342.491 24.812 342.491 25.434 C 342.491 26.043 342.271 26.542 341.831 26.931 C 341.404 27.307 340.88 27.495 340.259 27.495 L 325.314 27.495 L 325.703 27.009 L 325.703 41.105 L 325.373 40.735 L 342.704 40.735 C 343.325 40.735 343.849 40.949 344.276 41.377 C 344.716 41.817 344.936 42.31 344.936 42.854 C 344.936 43.464 344.716 43.969 344.276 44.371 C 343.849 44.773 343.325 44.974 342.704 44.974 L 323.354 44.974 C 322.746 44.974 322.235 44.753 321.821 44.313 C 321.394 43.885 321.18 43.36 321.18 42.738 L 321.18 9.044 C 321.18 8.422 321.394 7.903 321.821 7.489 C 322.235 7.074 322.746 6.866 323.354 6.866 Z M 354.388 6.808 C 354.724 6.808 355.08 6.899 355.455 7.08 C 355.83 7.262 356.128 7.502 356.348 7.8 L 370.749 29.614 L 368.847 29.575 L 383.422 7.8 C 383.888 7.1 384.502 6.769 385.266 6.808 C 385.848 6.847 386.353 7.067 386.78 7.469 C 387.22 7.871 387.44 8.396 387.44 9.044 L 387.44 42.738 C 387.44 43.36 387.22 43.885 386.78 44.313 C 386.353 44.753 385.809 44.974 385.149 44.974 C 384.502 44.974 383.959 44.753 383.519 44.313 C 383.092 43.885 382.879 43.36 382.879 42.738 L 382.879 13.185 L 384.237 13.457 L 371.408 32.997 C 371.189 33.256 370.923 33.477 370.613 33.658 C 370.302 33.84 369.985 33.93 369.662 33.93 C 369.338 33.93 369.015 33.84 368.691 33.658 C 368.368 33.477 368.096 33.256 367.876 32.997 L 355.203 13.457 L 356.348 12.038 L 356.348 42.738 C 356.348 43.36 356.147 43.885 355.746 44.313 C 355.358 44.753 354.853 44.974 354.232 44.974 C 353.611 44.974 353.113 44.753 352.738 44.313 C 352.363 43.885 352.175 43.36 352.175 42.738 L 352.175 9.044 C 352.175 8.461 352.382 7.942 352.796 7.489 C 353.21 7.035 353.741 6.808 354.388 6.808 Z M 399.123 6.866 L 418.473 6.866 C 419.081 6.866 419.605 7.067 420.045 7.469 C 420.485 7.871 420.705 8.376 420.705 8.986 C 420.705 9.608 420.485 10.107 420.045 10.483 C 419.605 10.872 419.081 11.066 418.473 11.066 L 400.967 11.066 L 401.452 10.133 L 401.452 23.898 L 400.909 23.315 L 416.028 23.315 C 416.636 23.315 417.16 23.509 417.6 23.898 C 418.04 24.3 418.259 24.812 418.259 25.434 C 418.259 26.043 418.04 26.542 417.6 26.931 C 417.16 27.307 416.636 27.495 416.028 27.495 L 401.083 27.495 L 401.452 27.009 L 401.452 41.105 L 401.142 40.735 L 418.473 40.735 C 419.081 40.735 419.605 40.949 420.045 41.377 C 420.485 41.817 420.705 42.31 420.705 42.854 C 420.705 43.464 420.485 43.969 420.045 44.371 C 419.605 44.773 419.081 44.974 418.473 44.974 L 399.123 44.974 C 398.502 44.974 397.985 44.753 397.571 44.313 C 397.156 43.885 396.949 43.36 396.949 42.738 L 396.949 9.044 C 396.949 8.422 397.156 7.903 397.571 7.489 C 397.985 7.074 398.502 6.866 399.123 6.866 Z M 456.066 6.866 C 456.674 6.866 457.16 7.054 457.522 7.43 C 457.884 7.819 458.065 8.305 458.065 8.888 L 458.065 42.679 C 458.065 43.379 457.852 43.937 457.425 44.351 C 456.985 44.766 456.461 44.974 455.853 44.974 C 455.516 44.974 455.187 44.909 454.863 44.779 C 454.54 44.65 454.287 44.481 454.106 44.274 L 430.855 13.457 L 431.942 12.796 L 431.942 42.952 C 431.942 43.535 431.748 44.021 431.36 44.41 C 430.985 44.786 430.487 44.974 429.865 44.974 C 429.283 44.974 428.811 44.786 428.449 44.41 C 428.086 44.021 427.905 43.535 427.905 42.952 L 427.905 9.044 C 427.905 8.396 428.119 7.871 428.546 7.469 C 428.96 7.067 429.458 6.866 430.04 6.866 C 430.364 6.866 430.694 6.931 431.03 7.061 C 431.379 7.19 431.645 7.378 431.826 7.625 L 454.766 38.013 L 454.048 38.869 L 454.048 8.888 C 454.048 8.305 454.242 7.819 454.63 7.43 C 455.005 7.054 455.484 6.866 456.066 6.866 Z M 479.375 44.974 C 478.728 44.974 478.185 44.753 477.745 44.313 C 477.318 43.885 477.105 43.36 477.105 42.738 L 477.105 9.102 L 481.724 9.102 L 481.724 42.738 C 481.724 43.36 481.504 43.885 481.064 44.313 C 480.624 44.753 480.061 44.974 479.375 44.974 Z M 466.78 11.008 C 466.159 11.008 465.641 10.813 465.227 10.424 C 464.813 10.048 464.606 9.549 464.606 8.927 C 464.606 8.318 464.813 7.819 465.227 7.43 C 465.641 7.054 466.159 6.866 466.78 6.866 L 492.049 6.866 C 492.657 6.866 493.181 7.054 493.621 7.43 C 494.048 7.819 494.261 8.318 494.261 8.927 C 494.261 9.588 494.048 10.1 493.621 10.463 C 493.181 10.826 492.657 11.008 492.049 11.008 L 466.78 11.008 Z" style="fill: rgb(255, 255, 255);"/>
</svg>