<svg width="124" height="79" viewBox="0 0 124 79" fill="none" xmlns="http://www.w3.org/2000/svg">
<g filter="url(#filter0_i_2333_42457)">
<path d="M94.4232 38.9133C91.4824 54.5115 76.4777 64.7677 60.9093 61.8212C45.341 58.8747 35.1044 43.8413 38.0452 28.2431C40.9861 12.6449 55.9908 2.3886 71.5591 5.3351C87.1275 8.28159 97.3641 23.315 94.4232 38.9133Z" fill="url(#paint0_linear_2333_42457)"/>
</g>
<path d="M52.2705 43.1136L53.3798 37.2296L52.9395 23.435C53.7932 25.6278 56.5283 30.2081 60.6392 30.9861C64.7501 31.7642 67.5615 25.1867 68.4533 21.8007C68.0509 25.2793 68.2738 32.4311 72.3847 33.2091C76.4955 33.9871 80.7098 30.7221 82.3031 28.9923L76.8707 41.6755L75.7613 47.5595L52.2705 43.1136Z" fill="white"/>
<path d="M53.3798 37.2296L52.2705 43.1136L75.7613 47.5595L76.8707 41.6755M53.3798 37.2296L52.9395 23.435C53.7932 25.6278 56.5283 30.2081 60.6392 30.9861C64.7501 31.7642 67.5615 25.1867 68.4533 21.8007C68.0509 25.2793 68.2738 32.4311 72.3847 33.2091C76.4955 33.9871 80.7098 30.7221 82.3031 28.9923L76.8707 41.6755M53.3798 37.2296L76.8707 41.6755" stroke="white"/>
<path fillRule="evenodd" clipRule="evenodd" d="M5.26494 28.8303C3.83462 29.6254 3.20485 30.455 3.08582 31.2172C2.99449 31.802 3.17295 32.519 3.79242 33.3839C4.4079 34.2432 5.40199 35.1646 6.76877 36.1256C9.49789 38.0445 13.6007 40.0443 18.7903 42.0022C29.1613 45.9147 43.7747 49.6236 60.1691 52.1939C76.5635 54.7643 91.6093 55.7053 102.677 55.1539C108.216 54.878 112.732 54.2295 115.916 53.2376C117.51 52.7409 118.738 52.1678 119.586 51.5379C120.44 50.904 120.828 50.2759 120.919 49.6911C121.03 48.9849 120.742 48.0869 119.793 46.9954C118.86 45.9227 117.386 44.7816 115.408 43.6056C111.458 41.2575 105.612 38.8377 98.3902 36.5548L98.7188 35.3109C105.968 37.6026 111.889 40.0471 115.928 42.4477C117.944 43.646 119.52 44.8503 120.558 46.0436C121.579 47.2179 122.184 48.5062 121.973 49.8562C121.797 50.9803 121.093 51.8903 120.112 52.6195C119.124 53.3528 117.773 53.9678 116.129 54.4803C112.834 55.5067 108.228 56.1604 102.66 56.4378C91.5142 56.993 76.4054 56.045 59.9701 53.4683C43.5348 50.8916 28.8592 47.17 18.4155 43.23C13.1978 41.2616 9.01183 39.2296 6.18748 37.2438C4.77752 36.2524 3.6787 35.2533 2.96217 34.2529C2.24962 33.258 1.85699 32.1762 2.03255 31.0521C2.25904 29.6019 3.35803 28.5055 4.86124 27.6699C6.39514 26.8172 8.52099 26.1372 11.1232 25.6175C16.3357 24.5764 23.5906 24.1536 32.161 24.3744L32.076 25.6591C23.5351 25.439 16.3559 25.8628 11.2393 26.8847C8.677 27.3965 6.66457 28.0522 5.26494 28.8303Z" fill="url(#paint1_radial_2333_42457)"/>
<path fillRule="evenodd" clipRule="evenodd" d="M27.5943 60.3674C26.8621 60.7739 26.644 61.1446 26.6072 61.3797C26.5795 61.5574 26.622 61.8458 26.9246 62.2677C27.2231 62.684 27.7193 63.148 28.4255 63.644C29.8334 64.6329 31.9641 65.6726 34.6777 66.6956C40.0965 68.7384 47.7415 70.6786 56.3249 72.0243C64.9083 73.37 72.7793 73.8624 78.562 73.5757C81.4577 73.4322 83.8036 73.0943 85.4457 72.5836C86.2694 72.3274 86.8833 72.0375 87.2945 71.7325C87.7112 71.4233 87.8396 71.1617 87.8674 70.984C87.9012 70.7677 87.826 70.3905 87.3454 69.8387C86.8813 69.3058 86.1333 68.7233 85.1052 68.1128C83.0557 66.8956 80.0093 65.6341 76.2306 64.4403L76.5594 63.1964C80.3659 64.399 83.4876 65.6852 85.6256 66.9549C86.6913 67.5878 87.5419 68.2335 88.1111 68.8871C88.6637 69.5217 89.0563 70.2892 88.9219 71.1494C88.81 71.8663 88.366 72.4098 87.8209 72.8142C87.2703 73.2226 86.5329 73.5545 85.6588 73.8263C83.9055 74.3716 81.4704 74.7146 78.5447 74.8597C72.6843 75.1502 64.7502 74.6507 56.1258 73.2986C47.5015 71.9465 39.7943 69.9937 34.3027 67.9234C31.561 66.8899 29.3469 65.818 27.8437 64.7621C27.0943 64.2357 26.4933 63.694 26.0935 63.1366C25.6977 62.5847 25.4407 61.9313 25.5527 61.2144C25.6969 60.2913 26.3847 59.6539 27.1899 59.2069C28.0258 58.7428 29.167 58.3813 30.5404 58.1075C33.2953 57.5584 37.1158 57.338 41.6149 57.4546L41.5301 58.7393C37.0605 58.6235 33.3157 58.8449 30.6569 59.3748C29.3234 59.6406 28.2958 59.9779 27.5943 60.3674Z" fill="url(#paint2_radial_2333_42457)"/>
<defs>
<filter id="filter0_i_2333_42457" x="37.5415" y="4.83057" width="57.3854" height="62.4951" filterUnits="userSpaceOnUse" color-interpolation-filters="sRGB">
<feFlood flood-opacity="0" result="BackgroundImageFix"/>
<feBlend mode="normal" in="SourceGraphic" in2="BackgroundImageFix" result="shape"/>
<feColorMatrix in="SourceAlpha" type="matrix" values="0 0 0 0 0 0 0 0 0 0 0 0 0 0 0 0 0 0 127 0" result="hardAlpha"/>
<feOffset dy="5"/>
<feGaussianBlur stdDeviation="9"/>
<feComposite in2="hardAlpha" operator="arithmetic" k2="-1" k3="1"/>
<feColorMatrix type="matrix" values="0 0 0 0 1 0 0 0 0 1 0 0 0 0 1 0 0 0 0.81 0"/>
<feBlend mode="normal" in2="shape" result="effect1_innerShadow_2333_42457"/>
</filter>
<linearGradient id="paint0_linear_2333_42457" x1="59.054" y1="48.1406" x2="90.0002" y2="11.8329" gradientUnits="userSpaceOnUse">
<stop stop-color="#FF9900"/>
<stop offset="1" stop-color="white"/>
</linearGradient>
<radialGradient id="paint1_radial_2333_42457" cx="0" cy="0" r="1" gradientUnits="userSpaceOnUse" gradientTransform="translate(27.1811 20.6559) rotate(160.5) scale(14.2833 71.3749)">
<stop stop-color="#FFD89E"/>
<stop offset="1" stop-color="#FFF174"/>
</radialGradient>
<radialGradient id="paint2_radial_2333_42457" cx="0" cy="0" r="1" gradientUnits="userSpaceOnUse" gradientTransform="translate(38.8875 55.4154) rotate(159.588) scale(7.61284 38.8145)">
<stop stop-color="#FFD89E"/>
<stop offset="1" stop-color="#FFF174"/>
</radialGradient>
</defs>
</svg>
