<svg width="38" height="20" viewBox="0 0 38 20" fill="none" xmlns="http://www.w3.org/2000/svg">
<rect width="38" height="20" rx="4" fill="white"/>
<path fillRule="evenodd" clipRule="evenodd" d="M10.0004 15.5787H6.8848L4.5485 7.19271C4.43761 6.80695 4.20216 6.46592 3.85582 6.30519C2.99148 5.90127 2.03903 5.5798 1 5.41767V5.09481H6.01894C6.71163 5.09481 7.23115 5.5798 7.31773 6.14306L8.52993 12.1922L11.644 5.09481H14.673L10.0004 15.5787ZM16.4048 15.5787H13.4624L15.8853 5.09481H18.8277L16.4048 15.5787ZM22.6344 7.99917C22.721 7.43452 23.2405 7.11166 23.8466 7.11166C24.799 7.03059 25.8365 7.19272 26.7024 7.59525L27.2219 5.33802C26.356 5.01516 25.4036 4.85303 24.5393 4.85303C21.6834 4.85303 19.6054 6.3052 19.6054 8.32064C19.6054 9.85388 21.0773 10.6589 22.1164 11.1439C23.2405 11.6275 23.6734 11.9504 23.5868 12.434C23.5868 13.1594 22.721 13.4822 21.8566 13.4822C20.8176 13.4822 19.7786 13.2404 18.8276 12.8365L18.3081 15.0951C19.3471 15.4977 20.4712 15.6598 21.5103 15.6598C24.7124 15.7394 26.7024 14.2887 26.7024 12.1111C26.7024 9.36889 22.6344 9.20815 22.6344 7.99917ZM37 15.5787L34.6637 5.09481H32.1543C31.6348 5.09481 31.1152 5.41767 30.9421 5.90127L26.6158 15.5787H29.6448L30.2494 14.0469H33.9711L34.3174 15.5787H37ZM32.5871 7.91813L33.4514 11.8693H31.0286L32.5871 7.91813Z" fill="#172B85"/>
</svg>
