<svg width="263" height="120" viewBox="0 0 263 120" fill="none" xmlns="http://www.w3.org/2000/svg">
<g clip-path="url(#clip0_2333_42446)">
<g style="mix-blend-mode:multiply" opacity="0.5" filter="url(#filter0_f_2333_42446)">
<path d="M274 8.14544C266.357 9.57423 258.509 11.5782 250.3 14.1053C236.563 18.3335 222.827 22.5617 209.09 23.5144C196.487 24.3885 182.124 20.1505 165.179 15.1507C143.806 8.84437 118.326 1.32615 87.0902 1.32615C64.7834 1.32615 45.65 6.43882 27.2251 11.3622C-0.604736 18.7986 -26.8182 25.8032 -59.9098 14.1053C-114.91 -5.33735 -149.41 -4.80044 -194.91 16.4625C-240.41 37.7254 -277.485 33.7537 -307.749 24.0776C-310.681 23.1405 -313.582 22.1583 -316.463 21.1832C-327.95 17.295 -339.106 13.5185 -350.499 13.1501C-366.468 12.5599 -382.437 17.9218 -398.406 23.2837C-410.938 27.4913 -423.469 31.6989 -436 33.0303C-451.849 34.7142 -467.697 31.7567 -483.546 28.7992C-496.197 26.4384 -508.849 24.0776 -521.5 24.0776C-534.665 24.0776 -547.83 26.6341 -560.995 29.1905C-576.33 32.1683 -591.665 35.1462 -607 34.0836C-620.736 33.1317 -634.473 28.9073 -648.209 24.6829C-662.973 20.1426 -677.736 15.6024 -692.5 15.125C-714.3 14.3193 -733.122 18.7266 -751.899 23.1232C-774.988 28.5295 -798.007 33.9196 -826.409 29.5808C-841.759 27.236 -856.434 23.4467 -870.913 19.7079C-905.454 10.789 -938.883 2.15706 -977.7 14.1053C-991.437 18.3335 -1005.17 22.5617 -1018.91 23.5144C-1034.24 24.5779 -1049.58 21.5974 -1064.91 18.6169C-1092.51 13.2545 -1114.71 13.0608 -1142.36 18.2253C-1158.21 21.1855 -1174.06 24.1456 -1189.91 22.4602C-1202.44 21.1276 -1214.97 16.9162 -1227.5 12.7049C-1261.94 1.13146 -1284.41 1.09298 -1318.16 13.4995C-1321.27 14.6418 -1324.49 15.9191 -1327.79 17.2229C-1339.6 21.8976 -1352.27 26.9135 -1363.41 27.2741C-1447.99 27.2741 -1447.96 29.0645 -1446.76 114.567C-1446.59 126.117 -1446.41 139.194 -1446.41 154L274 154V8.14544Z" fill="#A1C038"/>
</g>
<g opacity="0.2" filter="url(#filter1_f_2333_42446)">
<path d="M359 55.1454C351.357 56.5742 343.509 58.5782 335.3 61.1053C321.563 65.3335 307.827 69.5617 294.09 70.5144C281.487 71.3885 267.124 67.1505 250.179 62.1507C228.806 55.8444 203.326 48.3262 172.09 48.3262C149.783 48.3262 130.65 53.4388 112.225 58.3622C84.3953 65.7986 58.1818 72.8032 25.0902 61.1053C-29.9098 41.6626 -64.4098 42.1996 -109.91 63.4625C-155.41 84.7254 -192.485 80.7537 -222.749 71.0776C-225.681 70.1405 -228.582 69.1583 -231.463 68.1832C-242.95 64.295 -254.106 60.5185 -265.499 60.1501C-281.468 59.5599 -297.437 64.9218 -313.406 70.2837C-325.938 74.4913 -338.469 78.6989 -351 80.0303C-366.849 81.7142 -382.697 78.7567 -398.546 75.7992C-411.197 73.4384 -423.849 71.0776 -436.5 71.0776C-449.665 71.0776 -462.83 73.6341 -475.995 76.1905C-491.33 79.1683 -506.665 82.1462 -522 81.0836C-535.736 80.1317 -549.473 75.9073 -563.209 71.6829C-577.973 67.1426 -592.736 62.6024 -607.5 62.125C-629.3 61.3193 -648.122 65.7266 -666.899 70.1232C-689.988 75.5295 -713.007 80.9196 -741.409 76.5808C-756.759 74.236 -771.434 70.4467 -785.913 66.7079C-820.454 57.789 -853.883 49.1571 -892.7 61.1053C-906.437 65.3335 -920.173 69.5617 -933.91 70.5144C-949.245 71.5779 -964.58 68.5974 -979.915 65.6169C-1007.51 60.2545 -1029.71 60.0608 -1057.36 65.2253C-1073.21 68.1855 -1089.06 71.1456 -1104.91 69.4602C-1117.44 68.1276 -1129.97 63.9162 -1142.5 59.7049C-1176.94 48.1315 -1199.41 48.093 -1233.16 60.4995C-1236.27 61.6418 -1239.49 62.9191 -1242.79 64.2229C-1254.6 68.8976 -1267.27 73.9135 -1278.41 74.2741C-1362.99 74.2741 -1362.96 76.0645 -1361.76 161.567C-1361.59 173.117 -1361.41 186.194 -1361.41 201L359 201V55.1454Z" fill="white"/>
</g>
<g opacity="0.1" filter="url(#filter2_f_2333_42446)">
<path d="M-55 46.1454C-47.3568 47.5742 -39.5094 49.5782 -31.2997 52.1053C-17.5632 56.3335 -3.82678 60.5617 9.90979 61.5144C22.5128 62.3885 36.876 58.1505 53.8207 53.1507C75.1937 46.8444 100.674 39.3262 131.91 39.3262C154.217 39.3262 173.35 44.4388 191.775 49.3622C219.605 56.7986 245.818 63.8032 278.91 52.1053C333.91 32.6626 368.41 33.1996 413.91 54.4625C459.41 75.7254 496.485 71.7537 526.749 62.0776C529.681 61.1405 532.582 60.1583 535.463 59.1832C546.95 55.295 558.106 51.5185 569.499 51.1501C585.468 50.5599 601.437 55.9218 617.406 61.2837C629.938 65.4913 642.469 69.6989 655 71.0303C670.849 72.7142 686.697 69.7567 702.546 66.7992C715.197 64.4384 727.849 62.0776 740.5 62.0776C753.665 62.0776 766.83 64.6341 779.995 67.1905C795.33 70.1683 810.665 73.1462 826 72.0836C839.736 71.1317 853.473 66.9073 867.209 62.6829C881.973 58.1426 896.736 53.6024 911.5 53.125C933.3 52.3193 952.122 56.7266 970.899 61.1232C993.988 66.5295 1017.01 71.9196 1045.41 67.5808C1060.76 65.236 1075.43 61.4467 1089.91 57.7079C1124.45 48.789 1157.88 40.1571 1196.7 52.1053C1210.44 56.3335 1224.17 60.5617 1237.91 61.5144C1253.24 62.5779 1268.58 59.5974 1283.91 56.6169C1311.51 51.2545 1333.71 51.0608 1361.36 56.2253C1377.21 59.1855 1393.06 62.1456 1408.91 60.4602C1421.44 59.1276 1433.97 54.9162 1446.5 50.7049C1480.94 39.1315 1503.41 39.093 1537.16 51.4995C1540.27 52.6418 1543.49 53.9191 1546.79 55.2229C1558.6 59.8976 1571.27 64.9135 1582.41 65.2741C1666.99 65.2741 1666.96 67.0645 1665.76 152.567C1665.59 164.117 1665.41 177.194 1665.41 192L-55 192V46.1454Z" fill="#A1C038"/>
</g>
<g opacity="0.1" filter="url(#filter3_f_2333_42446)">
<path d="M-96 35.1454C-88.3568 36.5742 -80.5094 38.5782 -72.2997 41.1053C-58.5632 45.3335 -44.8268 49.5617 -31.0902 50.5144C-18.4872 51.3885 -4.12402 47.1505 12.8207 42.1507C34.1937 35.8444 59.674 28.3262 90.9098 28.3262C113.217 28.3262 132.35 33.4388 150.775 38.3622C178.605 45.7986 204.818 52.8032 237.91 41.1053C292.91 21.6626 327.41 22.1996 372.91 43.4625C418.41 64.7254 455.485 60.7537 485.749 51.0776C488.681 50.1405 491.582 49.1583 494.463 48.1832C505.95 44.295 517.106 40.5185 528.499 40.1501C544.468 39.5599 560.437 44.9218 576.406 50.2837C588.938 54.4913 601.469 58.6989 614 60.0303C629.849 61.7142 645.697 58.7567 661.546 55.7992C674.197 53.4384 686.849 51.0776 699.5 51.0776C712.665 51.0776 725.83 53.6341 738.995 56.1905C754.33 59.1683 769.665 62.1462 785 61.0836C798.736 60.1317 812.473 55.9073 826.209 51.6829C840.973 47.1426 855.736 42.6024 870.5 42.125C892.3 41.3193 911.122 45.7266 929.899 50.1232C952.988 55.5295 976.007 60.9196 1004.41 56.5808C1019.76 54.236 1034.43 50.4467 1048.91 46.7079C1083.45 37.789 1116.88 29.1571 1155.7 41.1053C1169.44 45.3335 1183.17 49.5617 1196.91 50.5144C1212.24 51.5779 1227.58 48.5974 1242.91 45.6169C1270.51 40.2545 1292.71 40.0608 1320.36 45.2253C1336.21 48.1855 1352.06 51.1456 1367.91 49.4602C1380.44 48.1276 1392.97 43.9162 1405.5 39.7049C1439.94 28.1315 1462.41 28.093 1496.16 40.4995C1499.27 41.6418 1502.49 42.9191 1505.79 44.2229C1517.6 48.8976 1530.27 53.9135 1541.41 54.2741C1625.99 54.2741 1625.96 56.0645 1624.76 141.567C1624.59 153.117 1624.41 166.194 1624.41 181L-96 181V35.1454Z" fill="white"/>
</g>
</g>
<defs>
<filter id="filter0_f_2333_42446" x="-1448" y="-1" width="1723" height="156" filterUnits="userSpaceOnUse" color-interpolation-filters="sRGB">
<feFlood flood-opacity="0" result="BackgroundImageFix"/>
<feBlend mode="normal" in="SourceGraphic" in2="BackgroundImageFix" result="shape"/>
<feGaussianBlur stdDeviation="0.5" result="effect1_foregroundBlur_2333_42446"/>
</filter>
<filter id="filter1_f_2333_42446" x="-1363" y="46" width="1723" height="156" filterUnits="userSpaceOnUse" color-interpolation-filters="sRGB">
<feFlood flood-opacity="0" result="BackgroundImageFix"/>
<feBlend mode="normal" in="SourceGraphic" in2="BackgroundImageFix" result="shape"/>
<feGaussianBlur stdDeviation="0.5" result="effect1_foregroundBlur_2333_42446"/>
</filter>
<filter id="filter2_f_2333_42446" x="-56" y="37" width="1723" height="156" filterUnits="userSpaceOnUse" color-interpolation-filters="sRGB">
<feFlood flood-opacity="0" result="BackgroundImageFix"/>
<feBlend mode="normal" in="SourceGraphic" in2="BackgroundImageFix" result="shape"/>
<feGaussianBlur stdDeviation="0.5" result="effect1_foregroundBlur_2333_42446"/>
</filter>
<filter id="filter3_f_2333_42446" x="-97" y="26" width="1723" height="156" filterUnits="userSpaceOnUse" color-interpolation-filters="sRGB">
<feFlood flood-opacity="0" result="BackgroundImageFix"/>
<feBlend mode="normal" in="SourceGraphic" in2="BackgroundImageFix" result="shape"/>
<feGaussianBlur stdDeviation="0.5" result="effect1_foregroundBlur_2333_42446"/>
</filter>
<clipPath id="clip0_2333_42446">
<rect width="263" height="120" fill="white"/>
</clipPath>
</defs>
</svg>
