<svg width="64" height="64" viewBox="0 0 64 64" fill="none" xmlns="http://www.w3.org/2000/svg">
<circle cx="32.364" cy="32.364" r="28.7273" fill="url(#paint0_radial_1184_2192)" fill-opacity="0.02"/>
<circle cx="32.0002" cy="32.0002" r="26.1818" fill="url(#paint1_radial_1184_2192)" fill-opacity="0.05"/>
<circle cx="32.3642" cy="32.3642" r="22.9091" fill="url(#paint2_radial_1184_2192)" fill-opacity="0.15"/>
<circle cx="32.0004" cy="32.0004" r="20.3636" fill="url(#paint3_radial_1184_2192)"/>
<path fill-rule="evenodd" clip-rule="evenodd" d="M22.7322 22.7322C23.7085 21.7559 25.2915 21.7559 26.2678 22.7322L31.7728 28.2372L37.2777 22.7323C38.254 21.756 39.8369 21.756 40.8132 22.7323C41.7895 23.7086 41.7895 25.2915 40.8132 26.2678L35.3083 31.7728L40.8132 37.2776C41.7895 38.2539 41.7895 39.8369 40.8132 40.8132C39.8368 41.7895 38.2539 41.7895 37.2776 40.8132L31.7728 35.3083L26.2678 40.8132C25.2915 41.7895 23.7086 41.7895 22.7323 40.8132C21.756 39.8369 21.756 38.254 22.7323 37.2777L28.2372 31.7728L22.7322 26.2678C21.7559 25.2915 21.7559 23.7085 22.7322 22.7322Z" fill="white"/>
<defs>
<radialGradient id="paint0_radial_1184_2192" cx="0" cy="0" r="1" gradientUnits="userSpaceOnUse" gradientTransform="translate(50.2349 3.63673) rotate(130.696) scale(194.312 135.873)">
<stop stop-color="white"/>
<stop offset="0.0001" stop-color="#C84200"/>
<stop offset="0.236607" stop-color="#E13D33"/>
<stop offset="0.666667" stop-color="#EF611A"/>
<stop offset="1" stop-color="white"/>
</radialGradient>
<radialGradient id="paint1_radial_1184_2192" cx="0" cy="0" r="1" gradientUnits="userSpaceOnUse" gradientTransform="translate(48.2876 5.81837) rotate(130.696) scale(177.094 123.834)">
<stop stop-color="white"/>
<stop offset="0.0001" stop-color="#C84200"/>
<stop offset="0.236607" stop-color="#E13D33"/>
<stop offset="0.666667" stop-color="#EF611A"/>
<stop offset="1" stop-color="white"/>
</radialGradient>
<radialGradient id="paint2_radial_1184_2192" cx="0" cy="0" r="1" gradientUnits="userSpaceOnUse" gradientTransform="translate(46.6156 9.45508) rotate(130.696) scale(154.958 108.355)">
<stop stop-color="white"/>
<stop offset="0.0001" stop-color="#C84200"/>
<stop offset="0.236607" stop-color="#E13D33"/>
<stop offset="0.666667" stop-color="#EF611A"/>
<stop offset="1" stop-color="white"/>
</radialGradient>
<radialGradient id="paint3_radial_1184_2192" cx="0" cy="0" r="1" gradientUnits="userSpaceOnUse" gradientTransform="translate(44.6683 11.6367) rotate(130.696) scale(137.74 96.3152)">
<stop stop-color="white"/>
<stop offset="0.0001" stop-color="#C84200"/>
<stop offset="0.236607" stop-color="#E13D33"/>
<stop offset="0.666667" stop-color="#EF611A"/>
<stop offset="1" stop-color="white"/>
</radialGradient>
</defs>
</svg>
