<svg width="64" height="64" viewBox="0 0 64 64" fill="none" xmlns="http://www.w3.org/2000/svg">
<circle opacity="0.05" cx="31.9997" cy="32.364" r="28.7273" fill="#A1C76D"/>
<circle opacity="0.1" cx="31.6359" cy="32.0002" r="26.1818" fill="#A1C76D"/>
<circle opacity="0.2" cx="31.9999" cy="32.3642" r="22.9091" fill="#A1C76D"/>
<circle cx="31.6361" cy="32.0004" r="20.3636" fill="#A1C76D"/>
<path d="M35.8101 41.8001C34.7751 42.1612 33.9511 42.4351 33.3331 42.6246C32.7168 42.8142 32.0001 42.909 31.1847 42.909C29.9317 42.909 28.9562 42.6382 28.2616 42.098C27.567 41.5579 27.2214 40.8733 27.2214 40.0412C27.2214 39.7178 27.247 39.3867 27.298 39.0497C27.3508 38.7127 27.4342 38.3335 27.5483 37.9077L28.8438 33.8634C28.9579 33.4752 29.0566 33.1065 29.135 32.7635C29.2133 32.4174 29.2507 32.1 29.2507 31.8111C29.2507 31.2965 29.1298 30.9354 28.8898 30.7323C28.6464 30.5292 28.1884 30.4299 27.5057 30.4299C27.1721 30.4299 26.8282 30.4735 26.4758 30.5653C26.1268 30.6601 25.8237 30.7458 25.5752 30.8301L25.9174 29.5843C26.7652 29.2788 27.5772 29.017 28.3518 28.8004C29.1264 28.5807 29.8585 28.4724 30.548 28.4724C31.7924 28.4724 32.7526 28.7402 33.4284 29.2698C34.1009 29.8009 34.4397 30.4915 34.4397 31.3401C34.4397 31.5162 34.4159 31.8261 34.3699 32.2685C34.3239 32.7123 34.2371 33.1171 34.1111 33.4887L32.8224 37.521C32.7168 37.8445 32.6232 38.2147 32.5381 38.6284C32.4547 39.0422 32.4138 39.3582 32.4138 39.5703C32.4138 40.1059 32.5483 40.4716 32.8207 40.6656C33.0897 40.8597 33.5612 40.9575 34.2286 40.9575C34.5435 40.9575 34.8959 40.9079 35.2943 40.8116C35.6893 40.7153 35.9753 40.6295 36.1557 40.5558L35.8101 41.8001ZM35.582 25.4331C34.9811 25.9266 34.2575 26.1734 33.4114 26.1734C32.567 26.1734 31.8384 25.9266 31.2323 25.4331C30.6297 24.9396 30.3249 24.3392 30.3249 23.6381C30.3249 22.9385 30.6314 22.3366 31.2323 21.8386C31.8384 21.3391 32.567 21.0908 33.4114 21.0908C34.2575 21.0908 34.9828 21.3391 35.582 21.8386C36.183 22.3366 36.4843 22.9385 36.4843 23.6381C36.4843 24.3408 36.183 24.9396 35.582 25.4331Z" fill="white"/>
</svg>
