<svg version="1.1" id="Layer_1" xmlns="http://www.w3.org/2000/svg" xmlns:xlink="http://www.w3.org/1999/xlink" x="0px" y="0px" viewBox="0 0 36 36" style="enable-background:new 0 0 512 512;" xml:space="preserve" width="36" height="36"><path style="fill:#4FC0E8;" d="M36 18C36 27.942 27.942 36 18 36 8.058 36 0 27.942 0 18 0 8.059 8.058 0 18 0 27.942 0 36 8.059 36 18"/><path style="fill:#3DAED9;" d="M35.977 18.906q-0.019 -0.019 -0.038 -0.038c-0.035 -0.035 -9.316 -9.316 -9.351 -9.351C24.397 7.298 21.357 5.919 18 5.919c-6.661 0 -12.081 5.419 -12.081 12.081 0 3.357 1.379 6.397 3.597 8.588 0.035 0.035 9.316 9.316 9.351 9.351q0.019 0.019 0.038 0.038c9.221 -0.457 16.615 -7.85 17.071 -17.072"/><g><path style="fill:#F4F6F9;" d="M18 22.727c-0.581 0 -1.05 0.471 -1.05 1.051 0 0.581 0.47 1.05 1.05 1.05 0.58 0 1.05 -0.47 1.05 -1.05 0 -0.58 -0.471 -1.051 -1.05 -1.051"/><path style="fill:#F4F6F9;" d="M18 5.919c-6.661 0 -12.081 5.419 -12.081 12.081S11.339 30.081 18 30.081 30.081 24.661 30.081 18 24.661 5.919 18 5.919m0 23.111c-6.082 0 -11.03 -4.948 -11.03 -11.03S11.918 6.97 18 6.97 29.03 11.918 29.03 18 24.082 29.03 18 29.03"/><path style="fill:#F4F6F9;" d="M18 10.647c-1.882 0 -3.414 1.571 -3.414 3.501a0.525 0.525 0 0 0 1.05 0c0 -1.352 1.06 -2.451 2.364 -2.451s2.364 1.073 2.364 2.393c0 1.275 -1.105 2.393 -2.364 2.393a0.525 0.525 0 0 0 -0.525 0.525v3.093a0.525 0.525 0 0 0 1.05 0v-2.611c1.612 -0.264 2.889 -1.714 2.889 -3.401 0 -1.898 -1.532 -3.443 -3.414 -3.443"/></g></svg>