<svg width="32" height="32" viewBox="0 0 32 32" fill="none" xmlns="http://www.w3.org/2000/svg">
	<g clip-path="url(#clip0_186_15423-dfemsj96f)">
		<path fill-rule="evenodd" clip-rule="evenodd" d="M12.6449 5.29297C10.9518 5.62676 10.3486 6.37778 10.4015 7.46258C10.4862 8.98549 12.1793 11.8957 12.9941 13.1891C14.414 15.4236 16.0783 17.4978 17.9571 19.3746C19.4703 20.8453 20.4227 21.1583 22.0311 18.9887C23.4801 17.1864 24.7388 15.2431 25.7877 13.1891C26.3014 12.1429 26.7398 11.0623 27.0999 9.95555C27.3842 9.3392 27.4337 8.64253 27.2394 7.99313C27.045 7.34374 26.6198 6.78509 26.0417 6.4195C26.6379 6.70541 27.1411 7.14995 27.4946 7.70291C27.848 8.25587 28.0375 8.89522 28.0417 9.54875C28.0505 10.7862 27.8502 12.0165 27.4491 13.1891C26.7415 15.7063 25.7918 18.1513 24.6131 20.4907C23.6889 22.3417 22.6278 24.1232 21.4385 25.8209C18.9306 29.2109 16.5285 28.1156 13.7137 25.8209C11.8367 24.2596 10.1658 22.4724 8.74013 20.5011C7.11913 18.2137 5.74317 15.7668 4.63431 13.1995C3.27981 10.0077 4.30627 8.39093 5.95706 7.35827C8.02622 6.24154 10.2992 5.53961 12.6449 5.29297Z" fill="url(#paint0_linear_186_15423-zrpk3vgm5)"/>
		<path fill-rule="evenodd" clip-rule="evenodd" d="M12.5815 12.5102C15.1953 12.1347 21.9677 11.7175 24.3487 12.9274C24.6461 13.0583 24.8852 13.2913 25.0214 13.5829C25.1577 13.8746 25.1819 14.205 25.0894 14.5129C25.3222 14.0853 25.555 13.6472 25.7879 13.1882C26.3015 12.1419 26.7399 11.0614 27.1 9.95465C27.3843 9.3383 27.4338 8.64162 27.2395 7.99223C27.0451 7.34283 26.62 6.78418 26.0418 6.41859C25.4977 6.15432 24.9266 5.94802 24.3381 5.80317C22.6882 5.36463 20.9966 5.09547 19.2905 5C18.5709 5 17.809 5 17.0471 5C15.575 5.00762 14.1048 5.10516 12.645 5.29206C10.9519 5.62585 10.3487 6.37687 10.4016 7.46168C10.4757 8.76553 11.7138 11.0603 12.5815 12.5102Z" fill="url(#paint1_linear_186_15423-afpl56evx)"/>
	</g>
	<defs>
		<linearGradient id="paint0_linear_186_15423-zrpk3vgm5" x1="25.0788" y1="19.7605" x2="6.11788" y2="6.29877" gradientUnits="userSpaceOnUse">
			<stop stop-color="#026A42"/>
			<stop offset="0.4" stop-color="#027C49"/>
			<stop offset="1" stop-color="#86C442"/>
		</linearGradient>
		<linearGradient id="paint1_linear_186_15423-afpl56evx" x1="13.0683" y1="5.17732" x2="24.294" y2="13.1417" gradientUnits="userSpaceOnUse">
			<stop stop-color="#026A42"/>
			<stop offset="0.3" stop-color="#027C49"/>
			<stop offset="1" stop-color="#86C442"/>
		</linearGradient>
		<clipPath id="clip0_186_15423-dfemsj96f">
			<rect width="24" height="23" fill="white" transform="translate(4 5)"/>
		</clipPath>
	</defs>
</svg>