<?xml version="1.0" encoding="UTF-8"?>
<svg xmlns="http://www.w3.org/2000/svg" xmlns:xlink="http://www.w3.org/1999/xlink" viewBox="0 0 1920 1080">
  <defs>
    <style>
      .cls-1 {
        fill: url(#linear-gradient-12);
      }

      .cls-1, .cls-2, .cls-3, .cls-4, .cls-5, .cls-6, .cls-7, .cls-8, .cls-9, .cls-10, .cls-11, .cls-12, .cls-13, .cls-14, .cls-15, .cls-16, .cls-17, .cls-18, .cls-19, .cls-20, .cls-21, .cls-22, .cls-23, .cls-24, .cls-25, .cls-26, .cls-27, .cls-28, .cls-29, .cls-30, .cls-31, .cls-32, .cls-33, .cls-34 {
        stroke-width: 0px;
      }

      .cls-2 {
        fill: url(#linear-gradient-17);
      }

      .cls-3, .cls-35 {
        opacity: .32;
      }

      .cls-3, .cls-35, .cls-20, .cls-26 {
        mix-blend-mode: multiply;
      }

      .cls-3, .cls-33 {
        fill: #bb7676;
      }

      .cls-4 {
        fill: url(#linear-gradient);
      }

      .cls-5 {
        fill: #f5c1b8;
      }

      .cls-6 {
        fill: #110239;
      }

      .cls-7 {
        fill: url(#linear-gradient-6);
      }

      .cls-8 {
        fill: #bdd0f2;
      }

      .cls-9 {
        fill: #d4ecf0;
      }

      .cls-36 {
        isolation: isolate;
      }

      .cls-10 {
        fill: #fee16d;
      }

      .cls-11 {
        fill: url(#linear-gradient-15);
      }

      .cls-12 {
        fill: url(#linear-gradient-11);
      }

      .cls-13 {
        fill: url(#linear-gradient-5);
      }

      .cls-14 {
        fill: url(#linear-gradient-13);
      }

      .cls-15 {
        fill: url(#linear-gradient-16);
      }

      .cls-16 {
        fill: url(#linear-gradient-14);
      }

      .cls-17 {
        fill: #f1898b;
      }

      .cls-18 {
        fill: url(#linear-gradient-2);
      }

      .cls-19, .cls-20 {
        fill: #e0e9f9;
      }

      .cls-21 {
        fill: #e0e5fd;
      }

      .cls-22 {
        fill: url(#linear-gradient-7);
      }

      .cls-23 {
        fill: url(#linear-gradient-3);
      }

      .cls-24 {
        fill: #abadc4;
      }

      .cls-25 {
        fill: url(#linear-gradient-9);
      }

      .cls-26 {
        fill: #b3d0d8;
      }

      .cls-27 {
        fill: url(#linear-gradient-8);
      }

      .cls-28 {
        fill: url(#linear-gradient-18);
      }

      .cls-29 {
        fill: #161415;
      }

      .cls-30 {
        fill: #fff;
      }

      .cls-31 {
        fill: url(#linear-gradient-10);
      }

      .cls-37 {
        fill: #000;
        font-family: NotoSansLao-Bold, 'Noto Sans Lao';
        font-size: 12.35px;
        font-weight: 700;
      }

      .cls-32 {
        fill: url(#linear-gradient-4);
      }

      .cls-34 {
        fill: #bbccd9;
      }
    </style>
    <linearGradient id="linear-gradient" x1="139.61" y1="526.41" x2="92.03" y2="708.8" gradientTransform="translate(1023.16 -82.73) rotate(171.36) scale(1 -1)" gradientUnits="userSpaceOnUse">
      <stop offset="0" stop-color="#1acb9d"/>
      <stop offset=".74" stop-color="#037659"/>
    </linearGradient>
    <linearGradient id="linear-gradient-2" x1="436.35" y1="439.83" x2="393.36" y2="604.62" gradientUnits="userSpaceOnUse">
      <stop offset="0" stop-color="#1acb9d"/>
      <stop offset="1" stop-color="#037659"/>
    </linearGradient>
    <linearGradient id="linear-gradient-3" x1="1297.75" y1="637.54" x2="1202.56" y2="1002.43" xlink:href="#linear-gradient-2"/>
    <linearGradient id="linear-gradient-4" x1="1953.82" y1="254.03" x2="1836.9" y2="702.2" gradientTransform="translate(1754.88 -372.54) rotate(157.27) scale(1 -1)" xlink:href="#linear-gradient"/>
    <linearGradient id="linear-gradient-5" x1="628.87" y1="852.64" x2="597.23" y2="955.89" xlink:href="#linear-gradient-2"/>
    <linearGradient id="linear-gradient-6" x1="597.75" y1="842.81" x2="565.8" y2="947.09" xlink:href="#linear-gradient-2"/>
    <linearGradient id="linear-gradient-7" x1="669.36" y1="861.7" x2="635.69" y2="971.55" xlink:href="#linear-gradient-2"/>
    <linearGradient id="linear-gradient-8" x1="639.87" y1="661.7" x2="639.87" y2="1014.69" xlink:href="#linear-gradient-2"/>
    <linearGradient id="linear-gradient-9" x1="360.91" y1="910.94" x2="555.39" y2="910.94" gradientUnits="userSpaceOnUse">
      <stop offset="0" stop-color="#104cbc"/>
      <stop offset="1" stop-color="#324893"/>
    </linearGradient>
    <linearGradient id="linear-gradient-10" x1="423.65" y1="780.07" x2="505.74" y2="780.07" xlink:href="#linear-gradient-9"/>
    <linearGradient id="linear-gradient-11" x1="766.92" y1="694.52" x2="786.24" y2="745.83" xlink:href="#linear-gradient-2"/>
    <linearGradient id="linear-gradient-12" x1="658.76" y1="359.8" x2="719.3" y2="359.8" gradientTransform="translate(-38.22 828.73) rotate(-35.94)" gradientUnits="userSpaceOnUse">
      <stop offset="0" stop-color="#fff5ce"/>
      <stop offset="1" stop-color="#fdf9d6"/>
    </linearGradient>
    <linearGradient id="linear-gradient-13" x1="799.1" y1="682.41" x2="818.42" y2="733.71" xlink:href="#linear-gradient-2"/>
    <linearGradient id="linear-gradient-14" x1="773.6" y1="692.01" x2="792.93" y2="743.32" xlink:href="#linear-gradient-2"/>
    <linearGradient id="linear-gradient-15" x1="875.13" y1="1005.09" x2="939.3" y2="1005.09" gradientTransform="translate(395.8 -546.21) rotate(29.72)" xlink:href="#linear-gradient-12"/>
    <linearGradient id="linear-gradient-16" x1="556.67" y1="679.67" x2="620.84" y2="679.67" gradientTransform="translate(-49.29 152.45) rotate(-6.39)" xlink:href="#linear-gradient-12"/>
    <linearGradient id="linear-gradient-17" x1="676.2" y1="1134.27" x2="740.38" y2="1134.27" gradientTransform="translate(214.3 -296.62) rotate(16.26)" xlink:href="#linear-gradient-12"/>
    <linearGradient id="linear-gradient-18" x1="475.84" y1="423.59" x2="540.02" y2="423.59" gradientTransform="translate(34.89 1042.34) rotate(-44.84)" xlink:href="#linear-gradient-12"/>
  </defs>
  <g class="cls-36">
    <g id="Layer_1" data-name="Layer 1">
      <g>
        <g>
          <path class="cls-4" d="M1094.57,456.49c-11.67-5.24-28.03-.54-35.8,7.63-7.77,8.17-8.99,18.61-9.13,28.51.94-14.6-3.63-30.47-18.83-40.15-15.2-9.69-42.89-9.42-52.99,3.25-9.74,12.22.58,27.37,10.75,39.41-9.42-8.04-19.55-16.09-32.77-20.56-13.22-4.48-30.34-4.56-41.19,2.48-11.8,7.66-12.5,21.44-5.53,31.71,6.98,10.27,19.94,17.71,33.06,24.16-19.86-4.38-41.25-7.23-61.32-3.37-20.07,3.86-38.25,15.99-39.44,30.93-1.26,15.77,16.29,29.55,36.19,36.18,51.45,17.15,110.77-1.64,167.25-5.23,21.31-1.35,42.92-.48,64-3.12,21.08-2.63,42.46-9.48,53.96-22.47,11.51-12.99,9.14-32.86-8.99-41.05-19.81-8.94-45.63-.71-65.05,8.66,26.59-16.34,33.78-46.83,16.17-68.57-2.65-3.27-5.88-6.41-10.34-8.41Z"/>
          <path class="cls-9" d="M1057.48,568.74c18.6-9.44,42.78-15.55,73.91-18.69,1.96-.2,3.32-1.5,3.05-2.91-.27-1.41-2.09-2.41-4.03-2.19-32.29,3.25-57.49,9.65-77.04,19.58-9.38,4.76-17.4,10.4-23.79,16.6.75-4.67,2-9.29,4.01-13.74,2.78-6.17,7.04-12.14,11.17-17.91,1.38-1.93,2.76-3.86,4.09-5.8,13.03-19.02,21.69-39.51,30.07-59.33.58-1.36-.49-2.8-2.38-3.21-1.87-.41-3.88.35-4.46,1.71-8.29,19.62-16.87,39.91-29.64,58.55-1.31,1.92-2.67,3.82-4.03,5.73-4.25,5.95-8.65,12.11-11.61,18.68-3.59,7.97-4.94,16.3-5.24,24.59-.07.1-.15.2-.23.3-2.83-14.98-1.58-30.63-.35-45.91,1.86-23.13,3.79-47.04-8.17-68.87-.72-1.32-2.8-1.97-4.64-1.45-1.84.52-2.74,2.02-2.01,3.34,11.38,20.77,9.5,44.11,7.68,66.68-1,12.45-2.02,25.13-.89,37.6-3.54-6.7-6.33-13.81-9.19-21.11-4.33-11.06-8.81-22.5-16.31-32.78-10.35-14.17-26.8-26.2-46.32-33.86-1.74-.68-3.91-.22-4.85,1.03-.95,1.25-.31,2.81,1.43,3.49,18.29,7.18,33.71,18.45,43.41,31.74,7.16,9.8,11.53,20.98,15.76,31.78,3.39,8.65,6.85,17.46,11.78,25.73-5.65-1.98-11.57-3.46-17.33-4.87l-89.97-22.03c-1.87-.46-3.9.26-4.54,1.61-.63,1.35.37,2.81,2.23,3.27l89.98,22.03c6.44,1.57,13.1,3.21,19.03,5.52,1.05.41,2.09.86,3.11,1.32,5.85-.78,11.69-1.5,17.51-2.12,0-.36-.01-.72,0-1.09,6.55-8.71,16.38-16.68,28.84-23Z"/>
        </g>
        <g>
          <path class="cls-18" d="M301.17,573.35c-27.44-4.35-48.29-13.81-45.45-37.13,1.25-10.25,10.18-20.75,23.49-22.36,14.92-1.8,36.39,4.31,46.28,12.79-6.17-10.1-9.74-21.11-10.43-32.24-.78-12.45,4.33-27.07,24.09-27.74,18.93-.65,30.57,14.45,34.22,26.78,2.72,9.18,4.72,18.48,5.99,27.84-7.33-26.64.4-57.21,27.48-74.91,10.2-6.67,24.56-11.31,37.01-7.47,5.85,1.81,10.59,5.32,14.01,9.36,8.52,10.09,9.01,23.2,4.7,34.75-4.31,11.55-12.92,21.85-21.77,31.77,10.96-13.77,24.19-27.7,43.74-33.75,19.56-6.06,46.57-.47,52.74,14.94,4.13,10.32-2.23,21.74-12.3,29.32-10.07,7.57-23.31,12.08-36.25,16.42,22.19-3.85,46.91,2.79,61.05,16.41,3.95,3.81,7.2,8.31,7.41,13.16.33,7.54-6.69,14.19-14.7,18.62-19.07,10.54-44.43,12.26-67.71,9.56-23.42-2.71-51.06-9.61-72.71-16.51-21.23-6.77-66.31-4.12-100.92-9.6Z"/>
          <path class="cls-9" d="M508.75,569.62l-53.51-4.39c-17.01-1.4-32.15-2.09-45.34,3.54-3.83,1.64-7.2,3.75-10.27,6.04,7.66-13.96,20.39-24.91,30.86-32.19,17.57-12.21,38.58-21.4,58.6-29.76,1.4-.58,1.91-1.92,1.15-2.99-.77-1.07-2.52-1.46-3.92-.87-20.33,8.49-41.68,17.83-59.72,30.37-11.68,8.11-26.05,20.62-33.85,36.77,4.42-33.2,14.96-66.08,31.25-96.82.6-1.13-.12-2.41-1.59-2.87-1.48-.46-3.16.09-3.76,1.22-16.68,31.48-27.41,65.18-31.79,99.2-19.24-27.36-32.71-57.18-45.07-84.64-.52-1.15-2.16-1.77-3.67-1.37-1.51.39-2.31,1.65-1.79,2.8,11.92,26.48,24.84,55.16,43.01,81.83-4.31-2.46-8.58-4.93-12.82-7.39-23.22-13.47-47.24-27.41-74.71-36.1-1.47-.47-3.16.07-3.77,1.19-.61,1.12.09,2.41,1.56,2.88,26.78,8.48,50.49,22.23,73.43,35.53,4.11,2.38,8.26,4.78,12.45,7.16,8.92.69,16.87,1.66,23.23,3.25,4.13-3.66,8.59-7.08,14.02-9.41,11.71-5,25.9-4.32,41.91-3.01l53.51,4.39c1.58.11,3.01-.75,3.18-1.96.17-1.21-.98-2.3-2.56-2.43Z"/>
        </g>
        <ellipse class="cls-8" cx="721.59" cy="1015.04" rx="642.93" ry="48.66"/>
        <g>
          <path class="cls-23" d="M1133.73,970.22c-28.67-66.72-22-144.5,17.73-206.68,39.73-62.18,111.77-107.59,191.43-120.68,16.33,34.52,27.43,70.95,32.92,108.02,4.65,31.37,5.01,64.46-9.87,93.25-9.49,18.37-24.72,34.02-41.38,47.88-51.88,43.16-119.9,71.04-190.82,78.21Z"/>
          <path class="cls-9" d="M1364.82,846.1c-45.65,19.47-98.7,35.56-160.75,48.79,8.15-16.8,15.3-33.96,22.21-50.83,0,0,0-.01,0-.02.63-1.53,1.25-3.06,1.88-4.58,5.91-14.46,12.03-29.41,18.63-43.86,5.64-12.35,11.82-24.48,18.31-36.46,36.53-9.61,70.75-21.57,105.3-36.88-.64-2.81-1.35-5.61-2.06-8.41-32.15,14.36-63.98,25.76-97.62,35.04,20.64-36.42,45.17-71.01,73.37-103.35-.41-.89-.79-1.79-1.21-2.68-3.33.55-6.62,1.23-9.92,1.89-29.15,34.02-54.35,70.43-75.31,108.79-.16.23-.27.47-.38.72-6.84,12.56-13.32,25.28-19.24,38.24-5.91,12.94-11.38,26.19-16.7,39.16-17.77-33.96-34.7-66.78-44.4-101.11-2.53,2.75-4.94,5.58-7.33,8.42,10.35,33.5,27.1,65.53,44.47,98.7l2.68,5.12c-9.74,23.75-19.96,48.05-32.82,70.81-12.32,21.78-26.24,40.32-41.64,55.59,4.8-.6,9.59-1.29,14.35-2.07,13.07-14.25,25.02-30.84,35.74-49.81,2.4-4.24,4.67-8.53,6.89-12.85,60.33-12.52,112.41-27.68,157.65-45.9,2.91-4.01,5.54-8.16,7.88-12.46Z"/>
        </g>
        <g>
          <path class="cls-32" d="M113.3,883.7c17.56,17.44,38.89,31.69,61.47,43.85,47.13,25.38,102.57,42.22,157.36,35.96,1.04-60.99-2.77-122.96-24.92-180.75-22.15-57.79-64.51-111.53-125.55-140.4-38.72-18.32-82.76-25.87-123.24-40.94-5.91,48.95-11.83,98.33-6.15,147.3,5.69,48.97,23.93,98.16,61.03,134.99Z"/>
          <path class="cls-9" d="M97,865.14c47.26,15.82,97.66,23.66,148.47,22.94-20.34-26.16-38.36-54.16-55.19-82.24-5.35-8.92-10.65-17.91-15.96-26.92-4.24-7.18-8.5-14.39-12.79-21.6-39.7-7.33-75.73-17.66-111.05-32.04-.16-3.34-.29-6.68-.36-10.02,33.65,14.07,67.83,24.32,105.21,31.73-28-46.4-58.42-92.15-98.81-129.75.46-3.87.92-7.73,1.39-11.6,53.86,47.92,90.21,109.43,125.44,169.16,5.3,8.99,10.59,17.96,15.93,26.87,2.97,4.95,5.98,9.9,9.03,14.84,3.31-5.96,8.28-14.8,12.11-21.11,19.52-32.17,28.83-69.05,27.54-105.57,3.51,3.57,6.94,7.21,10.22,10.96-.75,34.35-10.44,68.58-28.79,98.83-5.43,8.95-13.24,23.14-15.07,26.49,31.93,50.57,68.83,99.13,117.85,134.41-.01,1-.02,1.99-.04,2.99-3.49.4-6.98.7-10.47.91-26.12-19.46-48.8-42.5-69.12-67.51-49.25,1.43-98.22-5.01-144.57-18.79-3.88-4.18-7.52-8.52-10.95-12.97Z"/>
        </g>
        <g>
          <rect class="cls-34" x="235.01" y="575.01" width="52.66" height="13.35"/>
          <rect class="cls-34" x="235.01" y="602.03" width="52.66" height="16.88"/>
          <path class="cls-34" d="M227.4,581.68c0,3.21-2.95,5.8-6.59,5.8s-6.59-2.6-6.59-5.8,2.95-5.8,6.59-5.8,6.59,2.6,6.59,5.8Z"/>
          <path class="cls-34" d="M227.4,610.47c0,3.21-2.95,5.8-6.59,5.8s-6.59-2.6-6.59-5.8,2.95-5.8,6.59-5.8,6.59,2.6,6.59,5.8Z"/>
        </g>
        <g>
          <g>
            <path class="cls-21" d="M1048,816.26c3.98-11.65,11.72-21.87,21.97-29.58l-10.76-13.89c-13.16,9.44-23.23,22.1-28.68,36.6l17.47,6.86Z"/>
            <path class="cls-21" d="M1049.76,856.9c-3.08-7-4.77-14.62-4.77-22.57,0-2.64.19-5.25.55-7.81l-17.97-7.06c-1.04,4.82-1.59,9.78-1.59,14.86,0,10.51,2.33,20.54,6.54,29.72l17.23-7.14Z"/>
            <path class="cls-21" d="M1164.12,767.15c-12.08-6.7-26.08-10.95-41.12-11.95v16.79c10.75.91,20.8,3.92,29.62,8.57l11.5-13.41Z"/>
            <path class="cls-21" d="M1162.09,786.54c12.01,8.96,20.59,21.35,23.8,35.46l18.72-2.91c-4.06-18.36-15.3-34.45-31.05-45.93l-11.47,13.37Z"/>
            <path class="cls-21" d="M1111.35,755.09c-15.6.72-30.15,4.93-42.66,11.76l10.72,13.84c9.44-5.01,20.3-8.15,31.94-8.83v-16.76Z"/>
            <path class="cls-21" d="M1177.49,866.02c-4.7,7.04-10.92,13.2-18.26,18.13l11,13.66c9.8-6.48,18.04-14.67,24.17-24.08l-16.9-7.71Z"/>
            <path class="cls-21" d="M1187.22,832.2c.03.71.05,1.42.05,2.13,0,7.91-1.67,15.48-4.72,22.45l16.96,7.73c4.35-9.31,6.76-19.5,6.76-30.19,0-1.7-.07-3.38-.19-5.06l-18.86,2.93Z"/>
            <path class="cls-21" d="M1149.41,889.68c-9.93,4.64-21.26,7.27-33.28,7.27-3.8,0-7.53-.27-11.17-.77l-6.6,15.96c5.74,1.01,11.68,1.54,17.76,1.54,16.12,0,31.25-3.73,44.35-10.26l-11.07-13.74Z"/>
            <path class="cls-21" d="M1093.58,893.73c-16.38-4.81-30.1-14.73-38.74-27.61l-17.26,7.15c10.8,16.84,28.39,29.86,49.49,36.19l6.51-15.73Z"/>
          </g>
          <rect class="cls-21" x="1093.52" y="794.58" width="49.98" height="6.86"/>
          <rect class="cls-21" x="1093.52" y="812.65" width="59.88" height="6.86"/>
          <rect class="cls-21" x="1093.52" y="830.73" width="57.32" height="6.86"/>
          <rect class="cls-21" x="1093.52" y="848.8" width="70.54" height="6.86"/>
          <rect class="cls-21" x="1093.52" y="866.87" width="49.98" height="6.86"/>
        </g>
        <g>
          <path class="cls-24" d="M756.64,842.86l-10.23,16.95c-.25.41-.82.56-1.28.35l-4.11-1.92c-.46-.22-.64-.72-.39-1.13l10.23-16.95c.25-.41.82-.56,1.28-.35l4.11,1.92c.46.22.64.72.39,1.13Z"/>
          <g>
            <path class="cls-5" d="M644.47,928.79c2.37.08,4.65.13,6.73-.82.98-.45,1.88-.92,2.97-.99,1.12-.08,2.38-.53,3.52-.86,1.07-.31,2.33-.81,3.56-.53,1.47.33.12,1.55-.9,2.25-1.12.76-5.54.9-5.86,2.19-.33,1.29,5.04.82,6.11.72,2.52-.25,3.3-1.78,5.19-2.92,1.11-.67,1.84-.67,1.8.69-.03,1.02-1.11,1.73-1.93,2.31-1.67,1.2-3.85,2.24-6.02,2.57,1.73-.08,4.4-1.11,5.89-1.88,1.03-.54,4.95-3.51,6.05-2.16,2.22,2.71-8.52,6.76-10.65,6.66,2.14-.1,4.09-.85,6.07-1.56,1.16-.42,3.85-1.51,3.44.44-.6,2.87-7.4,2.96-10.44,3.47,2.09.25,3.75-.15,5.99-.4,2.65-.29,1.97,1.52-.68,2.23-1.11.3-3.45.57-3.95.62-5.37.51-8.2-.34-12.88-2.32-1.68-.71-5.61-.46-6.24-1.77-1.22-2.53,1.28-5.78,2.24-7.95Z"/>
            <path class="cls-30" d="M589.24,865.72c4.89-7.1,2.06-12.59,10.77-9.41,14.3,5.22-9.85,59.39-1.49,61.81,11.64,3.35,47.32,9.09,47.32,9.09l-2.09,12.12s-59.16-4.04-68.4-6.81c-9.24-2.77,18.28-49.34,12.98-57.78-1.85-2.95-1.09-6.13.9-9.02Z"/>
            <path class="cls-13" d="M584.94,861.38c4.89-7.1,6.35-8.25,15.07-5.07,14.3,5.22-9.85,59.39-1.49,61.81,11.64,3.35,47.32,9.09,47.32,9.09l-2.09,12.12s-59.16-4.04-68.4-6.81c-9.24-2.77,7.6-68.25,9.59-71.14Z"/>
            <path class="cls-5" d="M654.48,930.03c-.13.5-5.12,5.44-7.05,6.88-.6-.75-1.07-1.48-1.19-1.89-.61-2.04.04-4.19.73-6.22,1.47-.04,2.9-.22,4.23-.83.98-.45,1.88-.92,2.97-.99,1.12-.08,2.38-.53,3.52-.85,1.07-.31,2.33-.81,3.56-.53,1.47.33.12,1.55-.9,2.25-1.12.76-5.54.9-5.86,2.19Z"/>
          </g>
          <path class="cls-6" d="M555.6,986.54s-13.26,11.87-14.25,15.47c-3.72,13.52,30.49,17.47,35.54,17.03,5.05-.44,7.86-7.5-1.65-11.09-5.25-1.98-8.61-.83-11.4-5.8-2.79-4.97,6.94-7.52,6.94-7.52l-15.18-8.1Z"/>
          <path class="cls-6" d="M595.43,991.33s-13.26,11.87-14.25,15.47c-3.72,13.52,30.49,17.47,35.54,17.03,5.04-.44,7.86-7.5-1.65-11.08-5.25-1.98-8.61-.83-11.4-5.8-2.79-4.97,6.94-7.52,6.94-7.52l-15.18-8.1Z"/>
          <path class="cls-6" d="M597.69,961.27c-7.25,3.18-19.66,8.05-49,26.02,0,0,11.9,9.73,17.35,14.36,0,0,78.83-33.75,72.16-52.7,0,0-44.65,13.5-40.51,12.32Z"/>
          <path class="cls-6" d="M584.78,931.98s-17.44.86-40.55,1.14c0,0-19.53,15.69-4.46,32.17,15.15,16.56,69.46,5.41,92.56-12.02,0,0-19.7,9.98-47.25,40.92,0,0,13.24,7.15,19.41,11.01,0,0,71.04-53.17,56.56-68.58-10.89-11.59-39.49-4.08-76.26-4.64Z"/>
          <path class="cls-5" d="M616.64,851.11c4.1,1.83,8.55,3.6,13.12,4.66.79-5.59,2.25-12.37,2.98-15.61-.71-.4-1.4-.85-2.07-1.34-1.64-1.22-4.65-2.02-6.57-3.19-3.16-1.93-5.94-4.41-8.58-6.85-.29-.27-.54-.55-.81-.82-.86,5.67-3.75,13.7-6.05,19.49,2.54.88,4.84,2.26,7.98,3.66Z"/>
          <path class="cls-17" d="M621.46,845.96c1.53,2.48,2.35,5.29,2.74,8.19,1.82.65,3.67,1.19,5.56,1.63.79-5.59,2.26-12.37,2.99-15.61-.71-.4-1.4-.85-2.07-1.34-1.64-1.22-4.65-2.02-6.57-3.19-3.16-1.93-5.94-4.41-8.58-6.85-.29-.27-.54-.55-.81-.82-.45,2.98-1.5,6.63-2.7,10.25,3.87,1.41,7.21,4.11,9.45,7.75Z"/>
          <g>
            <path class="cls-7" d="M606.3,942.04s-31.76,5.64-49.54,3.07c-18.73-2.7-23.21-9.57-24.88-14.44,0,0,35.6-56.55,49.98-72.09,14.39-15.55,28.95-17.16,28.95-17.16,0,0,9.6,10.36,19.57,12.41,0,0-7.37,34.43-12.01,47.96-4.64,13.54-12.07,40.25-12.07,40.25Z"/>
            <path class="cls-20" d="M622.95,879.13c-5.91-2.43-10.44-6.67-15.02-10.64-.77-.67-1.62-1.27-2.45-1.88-3.16,7.1-1.95,16.88-1.99,23.07-.08,13.64-18.69,38.84-30.46,56,0,0,.02,0,.03,0,16.13-.6,33.24-3.63,33.24-3.63,0,0,.24-.86.63-2.25.05-.18.1-.35.15-.54.09-.31.18-.65.28-1.01.1-.35.2-.7.31-1.09.09-.32.18-.63.28-.97.16-.58.34-1.19.52-1.84.07-.25.14-.49.21-.75.18-.62.37-1.27.56-1.94.12-.42.24-.83.37-1.27,1.05-3.65,2.27-7.81,3.53-12,.06-.21.12-.42.19-.63.52-1.73,1.04-3.44,1.56-5.12.09-.3.18-.59.27-.88.51-1.66,1.02-3.28,1.52-4.81.07-.23.15-.45.22-.68.51-1.59,1.01-3.11,1.48-4.47,1.82-5.31,4.06-13.83,6.11-22.22-.52-.13-1.04-.24-1.53-.43Z"/>
          </g>
          <path class="cls-5" d="M606.97,813.31s6.1-14.19,16.02-14.38c9.92-.19,16.4.75,18.04,4.01,1.64,3.25,4.75,12.33,7.61,15.56,2.86,3.23,8.75,7.3,8.78,8.86.03,1.56-5.56,2.52-5.82,3.17-.25.65-2.21,12.14-4.16,13.46-1.95,1.33-21.55-3.77-24.96-8.52-3.41-4.75-15.51-13.29-15.5-22.16Z"/>
          <path class="cls-6" d="M625.79,813.78c2.59,1.62,8.91,3.36,18.41-1.3,9.51-4.66,2.54-25.11-18.28-22.48-20.82,2.62-19.02,9.32-22.69,11.04-3.67,1.72-6.44,3.88-7.67,7.82-2.13,6.8-1.33,14.71,9.56,22.04,11,7.41,17.46,5.69,17.46,5.69.09-2.38-.66-6.35-3.11-7.41-.98-.42-2.11-.45-3.7-1.44-2.89-1.8-1.94-6.76,3.11-6.4,2.38.17,3.99,3.81,5.55,5.08,1.66,1.35,2.55.98,3.3.65,1.47-.63,1.98-4.92-1.95-9.15-2.54-2.74-2.58-5.77,0-4.14Z"/>
          <path class="cls-5" d="M729.6,862.45c2.16-.87,4.22-1.74,5.58-3.41.64-.79,1.21-1.57,2.14-2.07.96-.52,1.85-1.42,2.7-2.16.8-.7,1.66-1.65,2.9-1.89,1.48-.29.91,1.33.35,2.37-.6,1.13-4.47,3.01-4.1,4.28.37,1.28,4.92-1.27,5.82-1.79,2.12-1.23,2.03-2.9,3.13-4.67.65-1.03,1.3-1.33,1.96-.1.5.92-.11,1.98-.54,2.83-.87,1.73-2.28,3.53-4.05,4.69,1.5-.76,3.36-2.74,4.29-4.03.64-.89,2.61-5.1,4.29-4.33,3.37,1.53-4.13,9.42-6.08,10.18,1.86-.94,3.21-2.39,4.61-3.81.82-.83,2.66-2.88,3.3-.98.94,2.8-5.08,5.59-7.52,7.25,1.99-.61,3.27-1.63,5.14-2.74,2.21-1.31,2.54.57.54,2.26-.84.71-2.78,1.88-3.21,2.13-4.53,2.59-7.49,2.96-12.68,3.06-1.87.03-5.24,1.82-6.47.91-2.39-1.77-1.83-5.67-2.09-7.98Z"/>
          <path class="cls-22" d="M734.52,872.58l-3.97-12.98s-44.15,18.3-63.97,18.46c-19.82.15-43.4-22-53.98-20.17-17.97,3.11-18.54,21.35-3.64,26.56,14.91,5.21,52.29,11.72,61.4,11.71,9.1,0,45.56-13.07,64.16-23.58Z"/>
        </g>
        <text class="cls-37" transform="translate(454.53 600.8) scale(1.1 1)"><tspan x="0" y="0">L</tspan></text>
      </g>
      <g>
        <ellipse class="cls-8" cx="624.38" cy="1009.98" rx="320.11" ry="33.3"/>
        <g>
          <g>
            <path class="cls-19" d="M535.54,640.42h206.33c5.15,0,9.34,4.18,9.34,9.34v354.95c0,5.15-4.18,9.34-9.34,9.34h-206.33c-5.15,0-9.34-4.18-9.34-9.34v-354.95c0-5.15,4.18-9.34,9.34-9.34Z"/>
            <rect class="cls-27" x="543.43" y="655.87" width="192.86" height="327.35"/>
            <path class="cls-30" d="M638.7,1003.61c-3.35,0-6.07-2.72-6.07-6.07s2.72-6.07,6.07-6.07,6.07,2.72,6.07,6.07-2.72,6.07-6.07,6.07Z"/>
          </g>
          <g>
            <rect class="cls-30" x="550.87" y="665.85" width="9.46" height="7.65" rx="2.23" ry="2.23"/>
            <rect class="cls-30" x="576.67" y="665.85" width="9.46" height="7.65" rx="2.23" ry="2.23"/>
            <rect class="cls-30" x="701.29" y="665.85" width="9.46" height="7.65" rx="2.23" ry="2.23"/>
            <rect class="cls-30" x="672.38" y="665.85" width="9.46" height="7.65" rx="2.23" ry="2.23"/>
            <rect class="cls-30" x="719.41" y="665.85" width="9.46" height="7.65" rx="2.23" ry="2.23"/>
          </g>
        </g>
        <g>
          <path class="cls-25" d="M461.72,801.73s-27.45,6.86-48.03,22.11c-20.59,15.25-41.93,62.52-46.13,95.68-4.19,33.16-12.58,59.09,0,76.05,12.58,16.96,53.37,20.39,88.44,23.83,35.07,3.43,83.47-4.96,93.2-17.15,9.73-12.2,8.97-104.53-9.33-139.37-18.3-34.84-51.46-61.9-78.15-61.14Z"/>
          <path class="cls-3" d="M508.46,1000.39c-7.05-2.34-14.3-4.9-20.12-9.7-12.49-10.29-20.1-13.34-35.64-13.19-14.22.14-27.95.1-40.16-7.97-10.88-7.19-16.96-23.24-14.33-35.86,1.91-9.18,4.66-16.5,10.33-24.02,7.99-10.62,9.53-18.25,6.68-31.52-3.4-15.86-3.91-29.41.75-45.13,2.4-8.12,8.07-14.02,14.45-19.33-5.64,2.85-11.42,6.22-16.74,10.16-20.58,15.25-41.93,62.52-46.13,95.68-4.19,33.16-12.58,59.09,0,76.05,12.58,16.96,53.37,20.39,88.44,23.83,35.07,3.43,83.47-4.96,93.2-17.15,1.89-2.37,3.38-7.78,4.42-15.17-12.18,12.04-27.97,19.03-45.16,13.32Z"/>
          <path class="cls-31" d="M457.9,808.59s-29.45-7.15-33.45-29.45c-4-22.3,7.72-30.02,16.73-24.87,9.01,5.15,10.44,2.37,16.73-1.53,6.29-3.9,15.44,2.39,20.01,8.96,4.57,6.58,5.43-1.14,16.3-2,10.86-.86,14.58,9.15,8.86,22.3-5.72,13.15-11.15,27.16-45.17,26.59Z"/>
          <g class="cls-35">
            <path class="cls-33" d="M489.82,796.05c-7.63,1.97-3.11-7.89-4.35-11.32-2,.1-2.74,3.41-3.4,4.85-1.43,3.1-4.67,5.19-8.11,5.15-4.75-.06-5.41-5.25-7.44-8.43-.85-1.34-1.25-1.29-1.78.31-.59,1.77-.02,3.84-1.67,5.23-3.05,2.55-8.11-.35-10.47-2.4-2.58-2.24-3.65-5.93-6.41-8.1-.5.52-.71,1.22-.86,1.92-.68,3.21-.48,9.32-5.71,8.2-4.43-.95-7.41-8.19-8.83-11.88-1.64-4.24-3.19-9.31-3.18-13.89,0-2,.13-3.92.4-5.87.16-1.12.54-3.56,1.09-4.5l-.03-.02c-4.24,3.73-6.8,11.58-4.6,23.85,3.41,18.97,25.22,26.97,31.66,28.94,1.12.34,2.3.52,3.48.52,26.8.07,35.13-9.27,40.39-19.79-.02.01-.03.04-.05.05,0,0-7.38,6.48-10.11,7.19Z"/>
          </g>
          <path class="cls-6" d="M436.46,797.99l-2.66,14.04s7.52,7.24,28.01,7.24,31.54-7.24,31.54-7.24l-1.33-12.67s-28.03,7.1-55.57-1.36Z"/>
          <path class="cls-10" d="M439.1,899.03h0c0-2.56,1.91-4.63,4.27-4.63h48.79c2.36,0,4.27,2.07,4.27,4.63h0c0,2.56-1.91,4.63-4.27,4.63h-48.79c-2.36,0-4.27-2.07-4.27-4.63ZM446.1,930.28v-63.55c0-1.27.95-2.31,2.13-2.31h12.37c1.17,0,2.13,1.03,2.13,2.31v27.67h1.64l18.84-29c.4-.61,1.05-.98,1.74-.98h12.59c1.77,0,2.77,2.21,1.68,3.73l-19.96,27.74c-.58.81-.6,1.95-.04,2.78l20.33,30.25c1.03,1.53.02,3.67-1.72,3.67h-13.37c-.72,0-1.39-.4-1.78-1.05l-16.03-26.82c-.39-.66-1.06-1.05-1.78-1.05h0c-1.17,0-2.13,1.03-2.13,2.31v24.31c0,1.27-.95,2.31-2.13,2.31h-12.37c-1.17,0-2.13-1.03-2.13-2.31Z"/>
        </g>
        <g>
          <path class="cls-8" d="M855.21,838.9l-41.75,25.4-42.26-25.71v5.6l37.66,22.92-37.66,22.92v5.63l37.66,22.92-37.66,22.92v5.63l37.66,22.91-37.66,22.92v5.6l42.26-25.71,41.75,25.4v-5.6l-37.15-22.6,37.15-22.6v-6.26l-37.15-22.6,37.15-22.6v-6.26l-37.15-22.6,37.15-22.6v-5.6ZM851.15,944.3l-37.69,22.93-37.69-22.93,37.69-22.93,37.69,22.93ZM851.15,892.84l-37.69,22.93-37.69-22.93,37.69-22.93,37.69,22.93Z"/>
          <rect class="cls-6" x="760.24" y="990.6" width="104.98" height="23.44"/>
          <rect class="cls-6" x="760.24" y="823" width="104.98" height="23.44"/>
        </g>
        <rect class="cls-6" x="554.5" y="733.37" width="170.73" height="38.2"/>
        <g>
          <g>
            <path class="cls-5" d="M726.25,675.61c.97-.19,3.91,1.69,5.53,3.31.93.92,3.12,2.15,4.85,3.04-.43.98-.77,1.99-1.04,3.02.01-.05-2.82-1.13-3.11-1.29-.93-.52-1.53-1.46-2.73-1.4-.53.03-1.2.29-1.71.44-.67.2-2.43,1.35-3.09.91-1-.65,1.04-1.53,1.31-1.84.4-.46.49-1.43-.35-1.39-1.16.06-3.31.97-4.37.18-1.34-1,3.56-1.35,4.45-1.69-1.39.38-5.77.77-5.95-.03-.35-1.52,4.16-1.33,5.49-1.67-1.4.35-2.99.37-3.59,0-1.44-.86,3.35-1.43,4.32-1.62Z"/>
            <path class="cls-12" d="M796.76,691.63c-.64-4.34-4.58-7.44-8.97-7.46-7.2-.04-20.59-.15-24.68-.48-5.68-.46-29.22-4.68-29.22-4.68l-1.59,6.28s26.21,8.7,30.74,9.02c4.53.32,28.25,5.03,32.25,1.87,1.4-1.1,1.72-2.79,1.46-4.56Z"/>
            <path class="cls-26" d="M796.76,691.63c-.64-4.34-4.58-7.44-8.97-7.46-7.2-.04-20.59-.15-24.68-.48-5.68-.46-29.22-4.68-29.22-4.68l-1.59,6.28s26.21,8.7,30.74,9.02c4.53.32,28.25,5.03,32.25,1.87,1.4-1.1,1.72-2.79,1.46-4.56Z"/>
          </g>
          <g>
            <g>
              <path class="cls-10" d="M766.22,704.55c6.09,19.55-4.83,40.33-24.38,46.42-19.55,6.09-40.33-4.83-46.42-24.38-6.09-19.55,4.83-40.33,24.38-46.42,19.55-6.09,40.33,4.83,46.42,24.38Z"/>
              <path class="cls-1" d="M759.71,706.57c4.97,15.96-3.94,32.92-19.9,37.89-15.96,4.97-32.92-3.94-37.89-19.9-4.97-15.96,3.94-32.92,19.9-37.89,15.96-4.97,32.92,3.94,37.89,19.9Z"/>
            </g>
            <path class="cls-10" d="M717.91,724.11h0c-.9-1.29-.85-2.89.11-3.55l19.89-13.85c.96-.67,2.47-.16,3.37,1.13h0c.9,1.29.85,2.89-.11,3.55l-19.89,13.85c-.96.67-2.47.16-3.37-1.13ZM731.78,737.94l-22.4-32.16c-.45-.65-.43-1.44.05-1.77l5.04-3.51c.48-.33,1.23-.08,1.68.56l9.75,14.01.67-.47-2.54-20.03c-.05-.42.08-.79.36-.99l5.13-3.57c.72-.5,1.91.33,2,1.41l1.64,19.71c.05.58.44,1.16.96,1.42l18.95,9.54c.96.48,1.3,1.85.59,2.34l-5.45,3.79c-.29.2-.71.19-1.1-.03l-15.99-9.03c-.39-.22-.8-.23-1.1-.03h0c-.48.33-.5,1.13-.05,1.77l8.57,12.3c.45.65.43,1.44-.05,1.77l-5.04,3.51c-.48.33-1.23.08-1.68-.56Z"/>
          </g>
          <path class="cls-5" d="M792.12,667.9c-.09.17-.17.34-.27.51-.91,1.53-1.88,3.1-3.09,4.42-.73.8-2,1.52-2.61,2.32-.24.32-.5.62-.78.9,1.05,2.35,3.76,8.55,4.22,11.12,0,0,7.73-2.52,9.81-6.42,0,0-5.45-7.95-7.28-12.86Z"/>
          <path class="cls-17" d="M791.19,682.12c-.01-2.38.7-4.88,2.1-6.83.48-.67.99-1.29,1.54-1.87-1.08-1.91-2.09-3.88-2.71-5.52-.09.17-.17.34-.27.51-.91,1.53-1.88,3.1-3.09,4.42-.73.8-2,1.52-2.61,2.32-.24.32-.5.62-.78.9,1.05,2.35,3.76,8.55,4.22,11.12,0,0,1.33-.44,3.02-1.22-.87-1.06-1.43-2.39-1.43-3.85Z"/>
          <path class="cls-29" d="M793.01,811.17s.41,9.53-.76,10.73c-1.18,1.2-17.18,1.5-18.68.14-1.5-1.36-.88-3.9,2.49-5.13,3.61-1.32,5.5-.45,7.74-1.6,2.24-1.15,1.34-4.74,1.34-4.74l7.88.61Z"/>
          <path class="cls-29" d="M832.42,811.85s1.28,9.05.07,10.21c-1.22,1.16-17.6,1.36-19.05-.05-1.45-1.41-.74-3.93,2.66-5.04,3.66-1.19,5.51-.26,7.79-1.33,2.27-1.07,1.5-4.69,1.5-4.69l7.03.91Z"/>
          <path class="cls-6" d="M830.59,763.1c.76-22.37-1.51-37.81-2.54-45.04-2.68.05-5.37.24-8.06,1.41-4.95,2.15-9.93,4.2-14.91,6.26,3.86,8.36,12.14,35.58,13.09,41.27,1.19,7.07,6.43,45.77,6.43,45.77l9.13-.38c-.04-5.79-3.2-47.34-3.14-49.29Z"/>
          <path class="cls-6" d="M819.73,721.44c-3.49,1.11-9.84,2.67-14.64,4.29-3.48,8.34-12.85,32.37-14.6,41.17-2.42,12.18-6.46,45.82-6.46,45.82l10.3,1.36s10.34-46.04,11.82-48.73c4.87-8.86,10.2-15.86,13.26-21.37,7.39-13.33,7.86-19.84,8.86-24.54-2.72.72-5.61,1.07-8.54,2Z"/>
          <g>
            <path class="cls-14" d="M801.51,731.84s8.33-.62,16.32-3.45c5.91-2.1,10.96-5.56,11.74-8.13,0,0-9.99-24.32-16.68-32.54-6.7-8.22-14.32-8.21-14.32-8.21,0,0-4.84,4.7-9.48,5.78,0,0,4.64,18.12,6.8,25.28,2.16,7.16,5.62,21.28,5.62,21.28Z"/>
            <path class="cls-20" d="M802.81,704.15c-.02-3.27.55-8.44-.92-12.2-.39.33-.78.64-1.14,1-2.13,2.1-4.24,4.34-6.99,5.63-.35.16-.72.26-1.1.36,1.17,4.39,2.39,8.84,3.23,11.63,2.16,7.16,5.62,21.28,5.62,21.28,0,0,2.33-.18,5.71-.76-3.85-7.8-4.36-17.87-4.4-26.93Z"/>
          </g>
          <path class="cls-5" d="M793.3,659.13s-5.19-6.12-9.57-4.66c-4.38,1.45-7.06,2.94-7.2,4.81-.14,1.88.1,6.88-.58,8.94-.68,2.05-2.54,5-2.28,5.78.26.78,2.89.39,3.11.67.23.29,3.12,5.7,4.21,6.06,1.09.36,8.78-5.24,9.43-8.14.65-2.9,4.44-9.04,2.87-13.46Z"/>
          <path class="cls-29" d="M784.32,662.07c-.87,1.2-3.45,3.02-8.74,2.1-5.29-.92-6.07-12.26,4.03-14.05,10.1-1.8,10.58,1.84,12.61,2.16,2.02.32,3.72.99,5.06,2.78,2.31,3.11,3.48,7.21-.1,12.52-3.62,5.38-6.93,5.48-6.93,5.48-.51-1.19-.94-3.29-.02-4.2.37-.36.89-.54,1.43-1.28.98-1.34-.43-3.69-2.68-2.75-1.06.44-1.09,2.51-1.57,3.39-.5.93-.98.87-1.39.82-.8-.1-1.87-2.18-.89-4.89.64-1.76.06-3.29-.81-2.08Z"/>
          <g>
            <path class="cls-5" d="M762.42,734.6c-1.04.82-2.04,1.59-3.32,1.78-.6.09-1.18.15-1.7.46-.53.33-1.26.51-1.9.71-.6.19-1.34.35-1.79.89-.54.65.52.83,1.24.85.78.02,2.82-1.35,3.44-.8.62.55-1.96,2.07-2.48,2.36-1.22.69-2.14.17-3.41.21-.74.02-1.08.26-.55.94.39.51,1.14.52,1.73.55,1.19.07,2.56-.12,3.66-.65-.8.52-2.39.87-3.34.96-.66.06-3.52-.17-3.52.88.01,2.1,6.33.66,7.26-.08-1,.65-2.15.9-3.3,1.18-.68.17-2.29.49-1.38,1.35,1.33,1.27,4.42-.91,5.98-1.64-.85.81-1.74,1.15-2.84,1.76-1.3.72-.32,1.42,1.13.92.61-.21,1.76-.83,2.01-.98,2.6-1.49,3.56-2.85,4.92-5.39.49-.91,2.35-2.07,2.15-2.94-.39-1.69-2.72-2.53-3.96-3.32Z"/>
            <path class="cls-16" d="M764.97,740.93l-5.05-5.38s14.19-16.84,19.3-24.93c5.11-8.09,9.22-23.17,14.05-25.14s10.49-.32,9.13,7.31c-1.36,7.63-14.01,20.14-16.33,23.88-2.32,3.74-18.52,21.95-21.1,24.26Z"/>
          </g>
        </g>
        <g>
          <path class="cls-10" d="M707.82,771.57c-.92-1.37-1.87-2.74-2.99-4.01-14.42-16.23-39.26-17.69-55.49-3.27-2.47,2.19-4.52,4.67-6.29,7.28h64.77Z"/>
          <path class="cls-11" d="M698.64,771.57c-11.86-12.46-31.54-13.4-44.51-1.88-.67.59-1.26,1.24-1.86,1.88h46.36Z"/>
        </g>
        <g>
          <path class="cls-10" d="M651.53,771.57c-3.66-13.81-14.65-25.15-29.57-28.4-20.64-4.49-40.96,8.17-46.28,28.4h75.85Z"/>
          <path class="cls-15" d="M644.04,771.57c-3.44-10.43-12.1-18.84-23.61-21.34-16.21-3.52-32.16,5.91-37.23,21.34h60.84Z"/>
          <g>
            <path class="cls-10" d="M619.57,771.57l2.42-14.1c.18-1.06-.76-2.17-1.58-1.87l-5.86,2.18c-.32.12-.55.44-.6.87l-1.65,12.92h7.27Z"/>
            <path class="cls-10" d="M599.08,771.57h8.81l-3.2-8.61c-.27-.74-.94-1.17-1.49-.97l-5.76,2.14c-.55.2-.77.97-.5,1.7l2.13,5.74Z"/>
          </g>
        </g>
        <g>
          <g>
            <path class="cls-10" d="M608.9,1013.1c-12.42,17.8-36.92,22.16-54.72,9.74-17.8-12.42-22.16-36.92-9.74-54.72,12.42-17.8,36.92-22.16,54.72-9.74,17.8,12.42,22.16,36.92,9.74,54.72Z"/>
            <path class="cls-2" d="M602.98,1008.96c-10.14,14.53-30.14,18.09-44.66,7.95-14.53-10.14-18.09-30.14-7.95-44.66,10.14-14.53,30.14-18.09,44.66-7.95,14.53,10.14,18.09,30.14,7.95,44.66Z"/>
          </g>
          <path class="cls-10" d="M559.2,990.93h0c0-1.58,1.05-2.86,2.34-2.86h26.71c1.29,0,2.34,1.28,2.34,2.86h0c0,1.58-1.05,2.86-2.34,2.86h-26.71c-1.29,0-2.34-1.28-2.34-2.86ZM563.04,1010.2v-39.19c0-.79.52-1.42,1.16-1.42h6.77c.64,0,1.16.64,1.16,1.42v17.07h.9l10.31-17.89c.22-.38.57-.6.95-.6h6.89c.97,0,1.51,1.36.92,2.3l-10.93,17.11c-.32.5-.33,1.2-.02,1.71l11.13,18.65c.56.94.01,2.26-.94,2.26h-7.32c-.39,0-.76-.24-.98-.65l-8.77-16.54c-.21-.4-.58-.65-.98-.65h0c-.64,0-1.16.64-1.16,1.42v14.99c0,.79-.52,1.42-1.16,1.42h-6.77c-.64,0-1.16-.64-1.16-1.42Z"/>
        </g>
        <g>
          <g>
            <path class="cls-10" d="M729,967.22c9.58,19.48,1.55,43.04-17.92,52.62-19.48,9.58-43.04,1.55-52.61-17.92-9.58-19.48-1.55-43.04,17.93-52.62,19.48-9.58,43.04-1.55,52.61,17.92Z"/>
            <path class="cls-28" d="M722.52,970.41c7.82,15.9,1.27,35.12-14.63,42.94-15.9,7.82-35.12,1.27-42.94-14.63-7.82-15.9-1.27-35.12,14.63-42.94,15.9-7.82,35.12-1.27,42.94,14.63Z"/>
          </g>
          <path class="cls-10" d="M682.61,996.5h0c-1.1-1.13-1.31-2.71-.47-3.52l17.38-16.9c.84-.82,2.41-.56,3.51.57h0c1.1,1.13,1.31,2.71.47,3.52l-17.38,16.9c-.84.82-2.41.56-3.51-.57ZM698.53,1007.89l-27.32-28.1c-.55-.56-.65-1.35-.23-1.76l4.41-4.29c.42-.41,1.2-.28,1.75.28l11.9,12.24.58-.57-5.76-19.35c-.12-.41-.05-.8.2-1.03l4.48-4.36c.63-.61,1.94.02,2.2,1.07l4.82,19.18c.14.56.62,1.07,1.18,1.24l20.25,6.33c1.02.32,1.58,1.61.96,2.22l-4.76,4.63c-.26.25-.67.31-1.09.15l-17.24-6.31c-.42-.15-.83-.1-1.09.15h0c-.42.41-.31,1.19.23,1.76l10.45,10.75c.55.56.65,1.35.23,1.76l-4.41,4.29c-.42.41-1.2.28-1.75-.28Z"/>
        </g>
        <g>
          <path class="cls-30" d="M712.74,921.89h-145.75v-108.58h145.75v108.58ZM568.53,920.36h142.67v-105.51h-142.67v105.51Z"/>
          <g>
            <path class="cls-30" d="M592.27,883.12h.08c2.28,0,4.13,1.85,4.13,4.13v15.82c0,2.28-1.85,4.13-4.13,4.13h-.08c-2.28,0-4.13-1.85-4.13-4.13v-15.82c0-2.28,1.85-4.13,4.13-4.13Z"/>
            <rect class="cls-30" x="607.16" y="868.52" width="8.35" height="38.68" rx="4.13" ry="4.13"/>
            <path class="cls-30" d="M630.31,873.44h.08c2.28,0,4.13,1.85,4.13,4.13v25.5c0,2.28-1.85,4.13-4.13,4.13h-.08c-2.28,0-4.13-1.85-4.13-4.13v-25.5c0-2.28,1.85-4.13,4.13-4.13Z"/>
            <path class="cls-30" d="M649.33,854.2h.08c2.28,0,4.13,1.85,4.13,4.13v44.74c0,2.28-1.85,4.13-4.13,4.13h-.08c-2.28,0-4.13-1.85-4.13-4.13v-44.74c0-2.28,1.85-4.13,4.13-4.13Z"/>
            <path class="cls-30" d="M668.36,846.17h.08c2.28,0,4.13,1.85,4.13,4.13v52.77c0,2.28-1.85,4.13-4.13,4.13h-.08c-2.28,0-4.13-1.85-4.13-4.13v-52.77c0-2.28,1.85-4.13,4.13-4.13Z"/>
            <rect class="cls-30" x="683.24" y="824.79" width="8.35" height="82.42" rx="4.13" ry="4.13"/>
          </g>
        </g>
      </g>
    </g>
  </g>
</svg>