<svg width="159" height="138" viewBox="0 0 159 138" fill="none" xmlns="http://www.w3.org/2000/svg">
<path d="M80.2849 103.611C106.482 103.611 127.685 82.2828 127.685 55.9673C127.685 29.6519 106.482 8.4 80.2849 8.4C54.1647 8.4 32.8844 29.7286 32.8844 56.044C32.8844 82.3595 54.1647 103.611 80.2849 103.611Z" fill="#EAEEF9"/>
<path fill-rule="evenodd" clip-rule="evenodd" d="M19 104.65C19 103.96 19.5232 103.4 20.1687 103.4H137.831C138.477 103.4 139 103.96 139 104.65C139 105.34 138.477 105.9 137.831 105.9H20.1687C19.5232 105.9 19 105.34 19 104.65Z" fill="#EAEEF9"/>
<g filter="url(#filter0_d_1286_19537)">
<path d="M127.916 95.8454H136.662C136.662 100.136 133.279 103.601 129.236 103.684C129.236 103.684 129.154 103.684 129.071 103.684H102.668V95.9279H122.718L127.916 95.8454Z" fill="#EAEEF9"/>
</g>
<path d="M125.689 101.786C125.606 101.704 125.524 101.621 125.441 101.456C124.533 100.384 123.873 98.8983 123.873 97.4131V51.1242C123.791 46.8336 120.573 43.4506 116.447 43.3681C116.447 43.3681 116.365 43.3681 116.282 43.3681H89.9611V51.1242H79.2346V96.9181C79.3171 98.4858 79.9772 99.971 80.8848 100.961C84.3503 104.509 81.2149 103.684 85.1754 103.684H129.732C128.164 103.601 126.761 102.859 125.689 101.786Z" fill="#D5DDEA"/>
<g filter="url(#filter1_d_1286_19537)">
<path d="M116.53 43.3681C115.044 43.3681 113.642 44.2757 112.734 45.3483C111.826 46.5035 111.084 48.8138 111.084 50.299V96.0929C111.084 100.466 107.618 103.931 103.41 103.931H66.5277V49.1439C66.6102 47.5761 67.2703 46.0909 68.1779 45.1008C69.3331 43.9456 70.4057 43.3681 72.056 43.3681L109.681 43.2855L116.282 43.3681C116.447 43.3681 116.447 43.3681 116.53 43.3681Z" fill="url(#paint0_linear_1286_19537)"/>
</g>
<path d="M90.1261 25.5458C88.5584 25.6283 87.1557 26.3709 86.0831 27.3611C86.0005 27.4436 85.918 27.5261 85.8355 27.6911C84.9279 28.7638 84.1853 30.3315 84.1853 31.8167V59.3755H39.6291V31.4866C39.7116 29.9189 40.3717 28.4337 41.2793 27.4436C42.4345 26.2884 43.9197 25.5458 45.6524 25.5458H90.1261Z" fill="#E7EBF0"/>
<path d="M98.8722 102.116C97.717 100.961 97.1395 99.3934 97.1395 97.7432L97.0569 33.4668C97.0569 29.1762 93.7565 25.7107 89.6309 25.6282C89.6309 25.6282 89.5484 25.6282 89.4659 25.6282H89.1358H88.9708H63.0622H61.412V33.4668H52.3357V53.352H53.0783V97.7432C53.0783 99.4759 53.8209 101.126 54.8111 102.116C55.8837 103.354 57.4514 103.932 59.0192 103.932H103.08C101.43 103.932 99.8623 103.106 98.8722 102.116Z" fill="#D5DDEA"/>
<g filter="url(#filter2_d_1286_19537)">
<path d="M89.5483 25.5458C87.8981 25.6283 86.4129 26.2884 85.3402 27.4436C85.2577 27.5261 85.1752 27.6086 85.0102 27.7736C84.02 28.9288 83.3599 30.3315 83.3599 31.9817V96.0106C83.3599 100.466 79.812 104.014 75.4388 104.014H36.6585V31.5692C36.741 29.9189 37.4011 28.4337 38.4737 27.3611C39.6289 26.2884 41.1966 25.5458 42.9293 25.5458H81.8747H89.3008C89.3833 25.5458 89.4658 25.5458 89.5483 25.5458Z" fill="url(#paint1_linear_1286_19537)"/>
</g>
<path d="M74.5149 37.5H44.4849C43.6599 37.5 42.9999 36.8334 42.9999 36C42.9999 35.1667 43.6599 34.5 44.4849 34.5H74.5149C75.3399 34.5 75.9999 35.1667 75.9999 36C75.9999 36.8334 75.3399 37.5 74.5149 37.5Z" fill="#D6DCE8"/>
<path d="M74.5149 46.5H44.4849C43.6599 46.5 42.9999 45.8334 42.9999 45C42.9999 44.1667 43.6599 43.5 44.4849 43.5H74.5149C75.3399 43.5 75.9999 44.1667 75.9999 45C75.9999 45.8334 75.3399 46.5 74.5149 46.5Z" fill="#D6DCE8"/>
<path d="M74.5149 55.5H44.4849C43.6599 55.5 42.9999 54.8334 42.9999 54C42.9999 53.1667 43.6599 52.5 44.4849 52.5H74.5149C75.3399 52.5 75.9999 53.1667 75.9999 54C75.9999 54.8334 75.3399 55.5 74.5149 55.5Z" fill="#D6DCE8"/>
<path d="M74.5149 64.5H44.4849C43.6599 64.5 42.9999 63.8334 42.9999 63C42.9999 62.1667 43.6599 61.5 44.4849 61.5H74.5149C75.3399 61.5 75.9999 62.1667 75.9999 63C75.9999 63.8334 75.3399 64.5 74.5149 64.5Z" fill="#D6DCE8"/>
<path d="M74.5149 73.5H44.4849C43.6599 73.5 42.9999 72.8334 42.9999 72C42.9999 71.1667 43.6599 70.5 44.4849 70.5H74.5149C75.3399 70.5 75.9999 71.1667 75.9999 72C75.9999 72.8334 75.3399 73.5 74.5149 73.5Z" fill="#D6DCE8"/>
<path d="M74.5149 82.5H44.4849C43.6599 82.5 42.9999 81.8334 42.9999 81C42.9999 80.1667 43.6599 79.5 44.4849 79.5H74.5149C75.3399 79.5 75.9999 80.1667 75.9999 81C75.9999 81.8334 75.3399 82.5 74.5149 82.5Z" fill="#D6DCE8"/>
<path d="M74.5149 91.5H44.4849C43.6599 91.5 42.9999 90.8334 42.9999 90C42.9999 89.1667 43.6599 88.5 44.4849 88.5H74.5149C75.3399 88.5 75.9999 89.1667 75.9999 90C75.9999 90.8334 75.3399 91.5 74.5149 91.5Z" fill="#D6DCE8"/>
<g filter="url(#filter3_d_1286_19537)">
<path d="M58.1116 97.6609H68.343C68.343 99.3936 69.0856 100.961 70.1583 102.116C71.3134 103.272 72.8811 103.932 74.5314 103.932H28.5725C26.8398 103.932 25.272 103.189 24.1994 102.116C23.0442 100.961 22.3016 99.3936 22.3016 97.6609H52.5833C52.5833 97.6609 58.2766 97.6609 58.1116 97.6609Z" fill="url(#paint2_linear_1286_19537)"/>
</g>
<g filter="url(#filter4_d_1286_19537)">
<path d="M76.5832 92.1837C71.8452 83.8418 72.2611 80.5206 72.9542 77.7917C74.1791 78.3686 75.0981 78.8996 75.0981 78.8996C74.8837 78.7888 75.1524 77.0193 75.1824 76.8664C75.3896 75.009 75.5668 73.3045 75.927 71.47C77.9721 62.2554 84.2393 53.9877 91.5226 47.7607C92.9247 46.633 94.3267 45.5053 95.7603 44.6184C96.492 44.0985 97.2852 43.6665 98.017 43.1466C98.1999 43.0166 100.214 41.9806 100.091 41.8048C100.305 50.3349 100.475 55.0815 103.21 58.7957C100.798 59.8509 99.6079 60.3021 96.6122 60.3256C101.117 63.4395 102.521 62.7055 102.521 62.7055C102.521 62.7055 102.029 70.4216 89.9965 81.9962C92.0804 83.4099 92.7221 83.3486 92.7221 83.3486C92.7221 83.3486 85.4788 92.1782 78.1725 92.107C76.5832 92.1837 76.5832 92.1837 76.5832 92.1837Z" fill="url(#paint3_linear_1286_19537)"/>
</g>
<path d="M75.1892 104.169C76.461 92.4795 77.2582 76.3922 85.8552 61.8663C94.4823 47.1876 101.517 40.2164 101.517 40.2164L100.882 41.852C100.882 41.852 90.711 52.366 84.6249 68.1333C78.5687 83.7477 78.243 95.0279 77.6572 102.021C75.1892 104.169 75.1892 104.169 75.1892 104.169Z" fill="#989FB0"/>
<defs>
<filter id="filter0_d_1286_19537" x="80.6676" y="84.8454" width="77.9947" height="51.8386" filterUnits="userSpaceOnUse" color-interpolation-filters="sRGB">
<feFlood flood-opacity="0" result="BackgroundImageFix"/>
<feColorMatrix in="SourceAlpha" type="matrix" values="0 0 0 0 0 0 0 0 0 0 0 0 0 0 0 0 0 0 127 0" result="hardAlpha"/>
<feOffset dy="11"/>
<feGaussianBlur stdDeviation="11"/>
<feColorMatrix type="matrix" values="0 0 0 0 0.397708 0 0 0 0 0.47749 0 0 0 0 0.575 0 0 0 0.27 0"/>
<feBlend mode="normal" in2="BackgroundImageFix" result="effect1_dropShadow_1286_19537"/>
<feBlend mode="normal" in="SourceGraphic" in2="effect1_dropShadow_1286_19537" result="shape"/>
</filter>
<filter id="filter1_d_1286_19537" x="44.5277" y="32.2855" width="94.0019" height="104.646" filterUnits="userSpaceOnUse" color-interpolation-filters="sRGB">
<feFlood flood-opacity="0" result="BackgroundImageFix"/>
<feColorMatrix in="SourceAlpha" type="matrix" values="0 0 0 0 0 0 0 0 0 0 0 0 0 0 0 0 0 0 127 0" result="hardAlpha"/>
<feOffset dy="11"/>
<feGaussianBlur stdDeviation="11"/>
<feColorMatrix type="matrix" values="0 0 0 0 0.397708 0 0 0 0 0.47749 0 0 0 0 0.575 0 0 0 0.27 0"/>
<feBlend mode="normal" in2="BackgroundImageFix" result="effect1_dropShadow_1286_19537"/>
<feBlend mode="normal" in="SourceGraphic" in2="effect1_dropShadow_1286_19537" result="shape"/>
</filter>
<filter id="filter2_d_1286_19537" x="14.6585" y="14.5458" width="96.8898" height="122.468" filterUnits="userSpaceOnUse" color-interpolation-filters="sRGB">
<feFlood flood-opacity="0" result="BackgroundImageFix"/>
<feColorMatrix in="SourceAlpha" type="matrix" values="0 0 0 0 0 0 0 0 0 0 0 0 0 0 0 0 0 0 127 0" result="hardAlpha"/>
<feOffset dy="11"/>
<feGaussianBlur stdDeviation="11"/>
<feColorMatrix type="matrix" values="0 0 0 0 0.397708 0 0 0 0 0.47749 0 0 0 0 0.575 0 0 0 0.27 0"/>
<feBlend mode="normal" in2="BackgroundImageFix" result="effect1_dropShadow_1286_19537"/>
<feBlend mode="normal" in="SourceGraphic" in2="effect1_dropShadow_1286_19537" result="shape"/>
</filter>
<filter id="filter3_d_1286_19537" x="0.301636" y="86.6609" width="96.2297" height="50.2709" filterUnits="userSpaceOnUse" color-interpolation-filters="sRGB">
<feFlood flood-opacity="0" result="BackgroundImageFix"/>
<feColorMatrix in="SourceAlpha" type="matrix" values="0 0 0 0 0 0 0 0 0 0 0 0 0 0 0 0 0 0 127 0" result="hardAlpha"/>
<feOffset dy="11"/>
<feGaussianBlur stdDeviation="11"/>
<feColorMatrix type="matrix" values="0 0 0 0 0.397708 0 0 0 0 0.47749 0 0 0 0 0.575 0 0 0 0.27 0"/>
<feBlend mode="normal" in2="BackgroundImageFix" result="effect1_dropShadow_1286_19537"/>
<feBlend mode="normal" in="SourceGraphic" in2="effect1_dropShadow_1286_19537" result="shape"/>
</filter>
<filter id="filter4_d_1286_19537" x="50.5337" y="30.8048" width="74.6759" height="94.3789" filterUnits="userSpaceOnUse" color-interpolation-filters="sRGB">
<feFlood flood-opacity="0" result="BackgroundImageFix"/>
<feColorMatrix in="SourceAlpha" type="matrix" values="0 0 0 0 0 0 0 0 0 0 0 0 0 0 0 0 0 0 127 0" result="hardAlpha"/>
<feOffset dy="11"/>
<feGaussianBlur stdDeviation="11"/>
<feColorMatrix type="matrix" values="0 0 0 0 0.397708 0 0 0 0 0.47749 0 0 0 0 0.575 0 0 0 0.27 0"/>
<feBlend mode="normal" in2="BackgroundImageFix" result="effect1_dropShadow_1286_19537"/>
<feBlend mode="normal" in="SourceGraphic" in2="effect1_dropShadow_1286_19537" result="shape"/>
</filter>
<linearGradient id="paint0_linear_1286_19537" x1="91.5124" y1="41.8827" x2="91.5124" y2="104.585" gradientUnits="userSpaceOnUse">
<stop stop-color="#FDFEFF"/>
<stop offset="0.9964" stop-color="#ECF0F5"/>
</linearGradient>
<linearGradient id="paint1_linear_1286_19537" x1="63.0861" y1="23.7308" x2="63.0861" y2="104.86" gradientUnits="userSpaceOnUse">
<stop stop-color="#FDFEFF"/>
<stop offset="0.9964" stop-color="#ECF0F5"/>
</linearGradient>
<linearGradient id="paint2_linear_1286_19537" x1="48.3995" y1="97.5158" x2="48.3995" y2="103.999" gradientUnits="userSpaceOnUse">
<stop stop-color="#FDFEFF"/>
<stop offset="0.9964" stop-color="#ECF0F5"/>
</linearGradient>
<linearGradient id="paint3_linear_1286_19537" x1="79.8999" y1="54.9561" x2="98.3911" y2="80.9827" gradientUnits="userSpaceOnUse">
<stop stop-color="#FDFEFF"/>
<stop offset="0.9964" stop-color="#ECF0F5"/>
</linearGradient>
</defs>
</svg>
